<svg width="118" height="14" viewBox="0 0 118 14" fill="none" xmlns="http://www.w3.org/2000/svg">
<path d="M95.3818 4.93414C95.4993 4.75488 95.4564 4.60572 95.457 4.46888C95.4617 3.30134 95.4593 2.13408 95.4602 0.965723C95.4602 0.783724 95.4517 0.60145 95.5113 0.423282C95.5821 0.213093 95.7169 0.0784401 95.9592 0.0428612C96.3463 -0.0158084 96.7411 -0.0142362 97.1276 0.0475138C97.3705 0.0871979 97.5057 0.235261 97.5529 0.446819C97.5808 0.59026 97.593 0.735967 97.5894 0.881702C97.5911 3.90956 97.5911 6.93742 97.5894 9.96527C97.59 10.458 97.5108 10.9481 97.3544 11.4188C97.0019 12.4821 96.2571 13.2051 95.1615 13.625C94.7635 13.7792 94.344 13.8798 93.9155 13.9236C92.8605 14.027 91.8072 14.035 90.7727 13.7569C89.1961 13.3335 88.314 12.3491 88.0453 10.8578C87.9702 10.4256 87.936 9.98811 87.9431 9.55037C87.948 9.02134 87.9431 8.49231 87.9466 7.963C87.9516 7.45212 88.0228 6.94367 88.1586 6.44871C88.5434 5.02774 89.5321 4.19355 91.0547 3.91166C91.7858 3.77482 92.5259 3.74745 93.2726 3.86458C94.0307 3.98364 94.6974 4.24227 95.2164 4.78635C95.2555 4.82713 95.3004 4.86189 95.3818 4.93414ZM95.4567 8.9146C95.4567 8.56793 95.4567 8.22127 95.4567 7.8746C95.4567 7.61843 95.412 7.36829 95.3583 7.1165C95.1973 6.36578 94.6974 5.93555 93.9164 5.7801C93.1667 5.63058 92.3916 5.62993 91.6416 5.77818C90.8779 5.92707 90.3941 6.35292 90.222 7.0697C90.1987 7.15809 90.182 7.2479 90.1721 7.33845C90.0818 8.37502 90.0818 9.41669 90.1721 10.4533C90.1776 10.526 90.1884 10.5983 90.2044 10.6697C90.3765 11.4029 90.8415 11.8512 91.6466 12.0007C92.2296 12.1101 92.8138 12.1222 93.3995 12.0732C93.6691 12.0505 93.9373 11.9815 94.1993 11.912C94.7996 11.753 95.1533 11.3611 95.3195 10.8173C95.405 10.537 95.4623 10.2494 95.4593 9.95433C95.4537 9.60784 95.4567 9.26108 95.4567 8.9146Z" fill="#212121"/>
<path d="M56.6693 6.87056C56.6693 4.91974 56.6698 2.96892 56.6708 1.0181C56.6708 0.836652 56.6708 0.651642 56.7066 0.474294C56.7521 0.243031 56.8952 0.0812842 57.1675 0.0429685C57.5545 -0.0138351 57.9488 -0.0130038 58.3356 0.0454316C58.6029 0.0870315 58.7515 0.243305 58.7856 0.483326C58.8072 0.664412 58.8163 0.846604 58.8129 1.02878C58.8152 2.10436 58.8129 3.18021 58.8149 4.25579C58.8149 4.42 58.8229 4.58421 58.8329 4.7465C58.8373 4.82039 58.9377 4.86665 58.9962 4.82861C59.0122 4.81822 59.0273 4.8065 59.0411 4.79357C59.754 4.11128 60.6683 3.88522 61.6429 3.80831C62.3108 3.75659 62.9728 3.80831 63.6161 3.9925C64.7616 4.32092 65.4644 5.0325 65.7294 6.12532C65.8066 6.44581 65.8453 6.77334 65.8445 7.10182C65.8445 9.01624 65.841 10.9304 65.8498 12.8448C65.8536 13.6971 65.5429 13.7876 64.8464 13.7636C64.6511 13.757 64.4537 13.7674 64.259 13.7466C63.9303 13.7113 63.7647 13.5632 63.7212 13.2619C63.6954 13.0824 63.6992 12.8982 63.6989 12.7162C63.6973 11.0571 63.6973 9.39803 63.6989 7.73896C63.6993 7.48403 63.6767 7.22952 63.6313 6.97812C63.5138 6.3262 63.0979 5.93675 62.4303 5.78075C61.7623 5.62368 61.0622 5.6283 60.3966 5.79416C59.5525 6.00079 59.0711 6.53311 58.9124 7.3194C58.8403 7.69647 58.8064 8.07904 58.8114 8.46203C58.8155 9.8841 58.8155 11.3062 58.8114 12.7282C58.8158 12.9104 58.8074 13.0927 58.7861 13.2739C58.7465 13.5517 58.5899 13.7077 58.2983 13.7411C57.9288 13.7827 57.5552 13.7827 57.1857 13.7411C56.9228 13.7124 56.7586 13.5572 56.7107 13.321C56.6791 13.1416 56.6653 12.9598 56.6696 12.778C56.6679 10.8088 56.6678 8.83963 56.6693 6.87056Z" fill="#212121"/>
<path d="M104.513 9.63994H101.988C101.85 9.63994 101.713 9.63802 101.576 9.64486C101.471 9.65006 101.387 9.69139 101.385 9.80661C101.38 10.1159 101.378 10.4219 101.461 10.7292C101.612 11.2913 101.983 11.6597 102.553 11.8513C102.996 12.0018 103.46 12.0681 103.931 12.0891C104.954 12.1348 105.963 12.0344 106.959 11.8239C107.17 11.7791 107.38 11.7366 107.596 11.7448C107.806 11.7531 107.919 11.8368 107.963 12.033C108.044 12.394 108.033 12.7575 107.976 13.1209C107.964 13.2029 107.931 13.2808 107.878 13.3473C107.826 13.4137 107.755 13.4664 107.674 13.5003C107.534 13.5634 107.387 13.614 107.237 13.6513C105.543 14.0774 103.84 14.1144 102.131 13.7455C101.847 13.6792 101.57 13.5876 101.305 13.4718C100.419 13.1007 99.826 12.4717 99.5109 11.62C99.3594 11.2246 99.2714 10.8106 99.2498 10.3912C99.2092 9.40594 99.2057 8.42232 99.2515 7.43815C99.2747 6.94251 99.4002 6.46685 99.5937 6.00487C99.9894 5.0623 100.714 4.43748 101.73 4.10961C102.668 3.80636 103.639 3.73165 104.623 3.83072C105.05 3.87369 105.472 3.94019 105.883 4.07403C107.109 4.47169 107.87 5.26209 108.195 6.42278C108.346 6.9711 108.404 7.5379 108.369 8.10293C108.355 8.33966 108.347 8.57722 108.319 8.81232C108.298 8.95618 108.262 9.09775 108.211 9.23489C108.138 9.44507 107.971 9.56604 107.738 9.59067C107.505 9.61729 107.271 9.63245 107.036 9.63611C106.197 9.64295 105.355 9.63966 104.513 9.63994ZM103.852 8.00495C104.439 8.00495 105.027 8.00878 105.614 8.00495C106.435 7.99838 106.348 8.11169 106.333 7.29118C106.333 7.27312 106.33 7.25506 106.329 7.23644C106.265 6.45891 105.846 5.93562 105.056 5.70162C104.286 5.47168 103.459 5.46767 102.686 5.69013C102.017 5.87788 101.595 6.30209 101.441 6.95044C101.382 7.20333 101.384 7.45703 101.386 7.71156C101.388 7.97594 101.41 8.00139 101.682 8.00331C102.403 8.00687 103.127 8.00495 103.852 8.00495Z" fill="#212121"/>
<path d="M41.5246 9.63991C40.6826 9.63991 39.8411 9.63991 39.0001 9.63991C38.8632 9.63991 38.726 9.64347 38.5888 9.65086C38.5495 9.65071 38.5117 9.66497 38.4836 9.69057C38.4554 9.71618 38.4392 9.75106 38.4385 9.7877C38.4044 10.2472 38.4358 10.6985 38.6629 11.1194C38.8685 11.5004 39.2151 11.7284 39.6348 11.8633C40.0621 12.0002 40.5057 12.0667 40.9565 12.088C41.9825 12.1375 42.9902 12.0387 43.9868 11.8302C44.198 11.7859 44.4071 11.7426 44.623 11.7445C44.8333 11.7467 44.9461 11.8283 45.0095 12.0182C45.0375 12.1053 45.0538 12.1951 45.0583 12.2859C45.0665 12.4501 45.0659 12.6143 45.0621 12.7785C45.0483 13.3292 44.9385 13.4627 44.3622 13.6376C43.8965 13.7778 43.4159 13.8704 42.9288 13.9138C41.6785 14.0257 40.4293 14.0553 39.1986 13.7556C39.0664 13.7235 38.9357 13.6855 38.8059 13.6461C37.4031 13.215 36.628 12.287 36.3713 10.9574C36.2894 10.5447 36.25 10.1256 36.2538 9.70587C36.2626 9.10376 36.2576 8.50166 36.2605 7.89955C36.2645 7.40683 36.3386 6.91677 36.4808 6.44219C36.8277 5.26534 37.6072 4.46646 38.8629 4.08577C39.7699 3.81071 40.7001 3.73983 41.6438 3.83015C41.9941 3.86196 42.3409 3.92082 42.6806 4.00613C44.092 4.37067 44.949 5.24071 45.283 6.55987C45.4701 7.29663 45.4345 8.04461 45.382 8.79176C45.374 8.84596 45.3618 8.89956 45.3456 8.95214C45.2281 9.46475 45.0909 9.57833 44.5181 9.6254C44.3419 9.63991 44.1657 9.63909 43.9895 9.63936C43.168 9.64064 42.3464 9.64082 41.5246 9.63991ZM40.8901 8.00492H41.5951C42.1238 8.00492 42.6524 8.00492 43.1811 8C43.3154 8 43.3964 7.93404 43.3985 7.79829C43.4035 7.50627 43.3929 7.21781 43.3233 6.9288C43.1867 6.36774 42.8431 5.96516 42.2762 5.76509C41.3657 5.44406 40.4337 5.43667 39.5226 5.76509C38.9316 5.97802 38.5827 6.40743 38.4837 6.99366C38.442 7.24463 38.4335 7.50189 38.4285 7.75642C38.4247 7.95812 38.4793 8.00273 38.7172 8.00273C39.4412 8.00629 40.1655 8.00492 40.8901 8.00492Z" fill="#212121"/>
<path d="M80.8995 13.9912C80.3943 13.9395 79.8915 13.8804 79.4016 13.7498C77.9623 13.3667 77.1141 12.478 76.8004 11.1326C76.6712 10.5795 76.6362 10.0159 76.6512 9.44887C76.6662 8.86565 76.6618 8.28215 76.6668 7.69866C76.6706 7.2583 76.7578 6.83026 76.8876 6.40796C77.2366 5.27135 78.0199 4.51024 79.208 4.12407C80.2017 3.80085 81.2347 3.73489 82.2765 3.82959C82.6649 3.86265 83.0502 3.92202 83.4293 4.00721C84.9197 4.35287 85.8299 5.23879 86.1677 6.63156C86.2654 7.0226 86.3147 7.42278 86.3145 7.82428C86.3098 8.53586 86.3098 9.24689 86.3145 9.95737C86.3151 10.3771 86.2571 10.7952 86.1418 11.201C85.7306 12.674 84.6826 13.524 83.1133 13.8464C82.8087 13.9091 82.4965 13.9397 82.1875 13.9852L82.0718 13.9917L81.6065 14L80.8995 13.9912ZM78.8041 8.84594C78.8041 9.14043 78.8109 9.39605 78.8041 9.65139C78.7933 9.98255 78.8417 10.3082 78.9108 10.6295C79.0476 11.265 79.406 11.7352 80.105 11.9216C81.0496 12.1737 81.9963 12.1756 82.9394 11.9148C83.4663 11.7692 83.8073 11.4446 83.9771 10.9569C84.1074 10.574 84.1729 10.1746 84.1713 9.77291C84.1739 9.22554 84.1674 8.67817 84.1742 8.13081C84.175 7.82062 84.1435 7.5111 84.0802 7.20657C83.9104 6.34584 83.4246 5.90411 82.4941 5.75304C81.837 5.64562 81.1648 5.64562 80.5077 5.75304C79.5499 5.90767 79.0685 6.36089 78.8923 7.24708C78.7804 7.79281 78.813 8.33935 78.8041 8.84676V8.84594Z" fill="#212121"/>
<path d="M18.6636 7.97592C18.6636 6.44466 18.6665 4.91312 18.6606 3.38186C18.6603 3.07186 18.6898 2.76246 18.7488 2.45736C18.8965 1.67517 19.4132 1.1902 20.2523 1.05336C20.5225 1.01163 20.7959 0.991306 21.0697 0.992601C22.9284 0.987492 24.7869 0.987492 26.6454 0.992601C26.8407 0.995627 27.0357 1.01016 27.229 1.03612C27.474 1.06567 27.6164 1.21866 27.6578 1.42995C27.7223 1.7719 27.7235 2.1216 27.6614 2.46393C27.6191 2.70641 27.4387 2.85037 27.1852 2.88595C26.9719 2.91111 26.757 2.92162 26.542 2.91742C25.0356 2.91997 23.5291 2.92061 22.0226 2.91934C21.8663 2.91934 21.708 2.91003 21.5526 2.92727C21.1479 2.9727 20.9255 3.18919 20.877 3.56715C20.8728 3.6035 20.871 3.64006 20.8715 3.67662C20.8715 4.47879 20.8685 5.28096 20.8715 6.08312C20.8715 6.29988 20.9099 6.33519 21.1455 6.33765C21.6933 6.34312 22.2411 6.34039 22.7903 6.34039C23.7487 6.34039 24.7074 6.33792 25.6661 6.34258C25.881 6.34153 26.0955 6.35617 26.3079 6.38636C26.6498 6.43836 26.7955 6.56535 26.8325 6.88201C26.8633 7.15392 26.8657 7.42798 26.8395 7.70032C26.8061 8.05283 26.6154 8.22032 26.2409 8.26247C26.0671 8.28217 25.8885 8.27779 25.7122 8.27779C24.3232 8.27889 22.9342 8.27889 21.5453 8.27779C21.3887 8.27779 21.2322 8.27779 21.0753 8.28026C20.9285 8.28272 20.8715 8.36236 20.8697 8.49017C20.8697 8.63605 20.8679 8.78192 20.8679 8.92807C20.8679 10.2042 20.8674 11.4803 20.8662 12.7564C20.8662 12.9381 20.8662 13.1231 20.8315 13.3007C20.7789 13.5722 20.6127 13.7249 20.3146 13.743C19.9439 13.7642 19.5722 13.7631 19.2017 13.7397C18.9467 13.7244 18.7787 13.5807 18.72 13.3316C18.6689 13.1154 18.6592 12.8992 18.6592 12.68C18.6639 11.1118 18.6653 9.54377 18.6636 7.97592Z" fill="#212121"/>
<path d="M50.7102 13.9611C49.7703 13.9952 48.8305 13.8936 47.9239 13.66C47.1603 13.4685 47.0481 13.327 47.0516 12.5858C47.0539 12.3857 47.0755 12.1862 47.1162 11.9897C47.1529 11.8075 47.2957 11.7032 47.498 11.7161C47.7121 11.7335 47.9242 11.7681 48.1319 11.8195C49.3194 12.1003 50.5251 12.1665 51.7446 12.1033C51.9598 12.0925 52.1723 12.0536 52.3758 11.9875C53.0006 11.7842 53.1565 11.0983 52.6728 10.6722C52.5577 10.5735 52.4293 10.489 52.2909 10.421C52.0157 10.2841 51.7358 10.1525 51.4512 10.0329C50.7389 9.73321 50.0223 9.44229 49.3071 9.14616C48.9295 8.99461 48.5711 8.80451 48.2385 8.57936C47.7486 8.24136 47.4161 7.80593 47.303 7.23858C47.194 6.69422 47.1855 6.1537 47.3403 5.61372C47.5183 4.9941 47.9219 4.55073 48.5269 4.25953C48.8764 4.09453 49.2513 3.98097 49.6381 3.9229C50.9874 3.70997 52.3285 3.75048 53.6515 4.09094C54.4859 4.30578 54.596 4.44673 54.5808 5.23795C54.5789 5.40201 54.5621 5.56562 54.5306 5.72702C54.4844 5.95172 54.3097 6.06502 54.0606 6.03683C53.9053 6.01747 53.7519 5.98681 53.6018 5.94515C52.7083 5.70978 51.7957 5.62822 50.8702 5.66216C50.577 5.67271 50.2854 5.70937 49.9996 5.77163C49.6821 5.84279 49.4178 5.99961 49.3611 6.33707C49.3071 6.66713 49.3969 6.95203 49.7015 7.1562C49.9253 7.30591 50.1715 7.4162 50.4235 7.51692C51.2314 7.84023 52.0387 8.16482 52.8455 8.49069C53.2414 8.64997 53.6235 8.8317 53.9734 9.06925C54.5943 9.49127 54.9397 10.0575 55.0143 10.7705C55.0493 11.079 55.0493 11.39 55.0143 11.6985C54.9089 12.5672 54.4442 13.1923 53.5851 13.5596C53.007 13.8059 52.3935 13.9135 51.7675 13.9575C51.4151 13.9813 51.0626 13.9611 50.7102 13.9611Z" fill="#212121"/>
<path d="M113.677 13.9624C112.851 14.0016 112.037 13.9126 111.233 13.7473C111.041 13.7115 110.852 13.6667 110.665 13.613C110.14 13.4515 110.026 13.304 110.011 12.776C110.003 12.5753 110.006 12.3743 110.021 12.1739C110.055 11.7864 110.217 11.675 110.645 11.736C110.799 11.7579 110.951 11.7938 111.103 11.8288C112.27 12.0989 113.456 12.1679 114.654 12.1061C114.888 12.0943 115.12 12.0528 115.343 11.9829C116.016 11.7719 116.015 11.077 115.68 10.7404C115.574 10.6337 115.451 10.5426 115.316 10.4702C115.027 10.3189 114.731 10.1766 114.43 10.0485C113.719 9.74744 113.005 9.45323 112.29 9.16094C111.912 9.01137 111.552 8.82456 111.217 8.60372C110.687 8.24793 110.349 7.78266 110.232 7.17153C110.137 6.70549 110.141 6.22659 110.245 5.76206C110.411 5.02968 110.861 4.52145 111.584 4.2089C111.904 4.07114 112.242 3.97412 112.59 3.92044C113.918 3.71326 115.238 3.75075 116.543 4.07644C117.424 4.29538 117.558 4.42703 117.532 5.34688C117.526 5.49191 117.5 5.63564 117.456 5.77492C117.403 5.95199 117.254 6.0538 117.064 6.03793C116.889 6.02174 116.716 5.99077 116.547 5.94542C115.654 5.7117 114.743 5.62795 113.819 5.66107C113.546 5.6746 113.275 5.70791 113.007 5.76069C112.662 5.82473 112.374 5.98155 112.302 6.33241C112.224 6.71311 112.383 7.01389 112.738 7.21285C112.938 7.32425 113.146 7.4237 113.36 7.51062C114.164 7.83904 114.973 8.1598 115.777 8.48904C116.027 8.59113 116.272 8.70416 116.513 8.82458C117.647 9.39138 118.06 10.3142 117.993 11.4651C117.98 11.6654 117.947 11.8641 117.893 12.0584C117.709 12.7339 117.276 13.2251 116.6 13.5281C115.992 13.8018 115.34 13.9159 114.675 13.9586C114.343 13.98 114.009 13.9624 113.677 13.9624Z" fill="#212121"/>
<path d="M67.8566 11.9786C67.8067 11.6168 67.6166 11.2903 67.5649 10.9257C67.5291 10.6734 67.4801 10.423 67.4792 10.1679C67.4768 9.33077 67.4768 8.49366 67.4792 7.65655C67.4792 7.21619 67.5705 6.7887 67.7142 6.37024C68.0323 5.43971 68.6646 4.7555 69.6019 4.31761C69.7584 4.24426 69.9165 4.1742 70.0736 4.10249C70.2131 4.11837 70.3144 4.03407 70.4293 3.98535L70.6587 3.9558C70.6717 3.96189 70.6858 3.96548 70.7003 3.96636C70.7148 3.96724 70.7293 3.96539 70.743 3.96092C70.7567 3.95645 70.7693 3.94945 70.7801 3.94034C70.7908 3.93123 70.7995 3.9202 70.8055 3.9079C71.0405 3.88546 71.2731 3.86877 71.5055 3.83948C72.3716 3.73001 73.2223 3.81211 74.0643 4.01081C74.1398 4.0286 74.2112 4.06308 74.2855 4.08251C74.6345 4.17365 74.7945 4.39588 74.8142 4.72403C74.8318 5.01578 74.8506 5.30752 74.7887 5.59626C74.7331 5.85626 74.5663 5.97175 74.2876 5.9411C74.1716 5.92537 74.0571 5.90084 73.9454 5.86775C73.0827 5.63512 72.2098 5.61952 71.3313 5.75828C71.1974 5.78345 71.065 5.81525 70.9348 5.85352C70.2645 6.0295 69.8806 6.457 69.7341 7.0747C69.6578 7.3768 69.6193 7.68612 69.6195 7.99647C69.6277 8.5619 69.6098 9.1276 69.6266 9.69331C69.6325 10.0207 69.6683 10.347 69.7335 10.6687C69.8612 11.2643 70.2228 11.6923 70.8634 11.8844C71.6614 12.1234 72.4771 12.1474 73.3013 12.047C73.6305 12.0068 73.9557 11.9375 74.2846 11.8962C74.8239 11.8272 74.9943 11.9652 75.0172 12.48C75.0245 12.6442 75.0172 12.8084 75.0172 12.9726C75.0172 13.3749 74.7972 13.6259 74.3936 13.7304C74.074 13.8125 73.7501 13.9023 73.422 13.9319C72.4054 14.0238 71.3921 14.0222 70.3932 13.7676C69.3942 13.5131 68.5665 13.0385 68.0358 12.1803C68.0123 12.1517 67.9848 12.1261 67.9541 12.1042C67.9512 12.0415 67.93 11.9923 67.8566 11.9786Z" fill="#212121"/>
<path d="M29.3355 9.90375C29.3355 9.01118 29.3355 8.11878 29.3355 7.22657C29.3355 6.78868 29.3704 6.35243 29.5096 5.93095C29.8033 5.03902 30.4066 4.41283 31.3565 4.08988C32.0838 3.84357 32.8404 3.73874 33.6035 3.811C34.3665 3.88325 34.6106 3.94154 34.6253 4.83348C34.6285 5.03382 34.6215 5.23196 34.5624 5.42874C34.5075 5.61321 34.3789 5.70653 34.1882 5.72131C34.0522 5.73188 33.9152 5.7258 33.7809 5.70325C33.3679 5.63209 32.9623 5.67588 32.559 5.75443C32.0544 5.85213 31.7328 6.13239 31.5918 6.60038C31.5007 6.90308 31.484 7.20906 31.4843 7.51969C31.4857 9.23149 31.4857 10.9435 31.4843 12.6556C31.4843 12.8376 31.4899 13.0216 31.4664 13.2014C31.4194 13.5613 31.2437 13.7277 30.8631 13.7512C30.5511 13.7706 30.238 13.7698 29.9261 13.7487C29.5651 13.7238 29.3998 13.567 29.3572 13.2359C29.3388 13.0546 29.3318 12.8724 29.336 12.6904C29.3343 11.7615 29.3343 10.8326 29.336 9.90375H29.3355Z" fill="#212121"/>
<path d="M10.0853 1.36601V2.41569V2.47059H3.51676C3.03522 2.47059 2.64484 2.86096 2.64484 3.34251V9.47059H1.42414C0.637608 9.47059 0 8.83298 0 8.04645V1.4532C0 0.650621 0.650619 0 1.4532 0H8.71927C9.4737 0 10.0853 0.611583 10.0853 1.36601Z" fill="url(#paint0_linear_90_5478)"/>
<path d="M2.81905 1.29028H8.90472C9.55663 1.29028 10.0851 1.81876 10.0851 2.47068L3.51177 2.50705C3.03211 2.50971 2.64467 2.8993 2.64467 3.37896V9.46832C1.93839 9.46832 1.36584 8.89577 1.36584 8.1895V2.74349C1.36584 1.9409 2.01647 1.29028 2.81905 1.29028Z" fill="url(#paint1_linear_90_5478)"/>
<path d="M4.85356 12.634V11.5843V11.5294H11.4221C11.9036 11.5294 12.294 11.139 12.294 10.6575V4.52941H13.5147C14.3012 4.52941 14.9388 5.16702 14.9388 5.95355V12.5468C14.9388 13.3494 14.2882 14 13.4856 14H6.21957C5.46515 14 4.85356 13.3884 4.85356 12.634Z" fill="url(#paint2_linear_90_5478)"/>
<path d="M12.1196 12.7098H6.03388C5.38197 12.7098 4.85349 12.1814 4.85349 11.5294L11.4268 11.4931C11.9065 11.4904 12.2939 11.1008 12.2939 10.6212V4.5318C13.0002 4.5318 13.5728 5.10435 13.5728 5.81063V11.2566C13.5728 12.0592 12.9221 12.7098 12.1196 12.7098Z" fill="url(#paint3_linear_90_5478)"/>
<path d="M4.85352 5.92449C4.85352 5.15401 5.47811 4.52942 6.24859 4.52942H10.085V8.07552C10.085 8.846 9.46045 9.47059 8.68997 9.47059H4.85352V5.92449Z" fill="url(#paint4_linear_90_5478)"/>
<defs>
<linearGradient id="paint0_linear_90_5478" x1="8.30068" y1="-1.82635e-06" x2="12.767" y2="6.11213" gradientUnits="userSpaceOnUse">
<stop stop-color="#2779FF"/>
<stop offset="0.515625" stop-color="#3B9DFB"/>
<stop offset="1" stop-color="#4CBAFF"/>
</linearGradient>
<linearGradient id="paint1_linear_90_5478" x1="10.0851" y1="1.29028" x2="9.89679" y2="9.62953" gradientUnits="userSpaceOnUse">
<stop stop-color="#2779FF"/>
<stop offset="0.475799" stop-color="#3B9DFB"/>
<stop offset="1" stop-color="#4CBAFF"/>
</linearGradient>
<linearGradient id="paint2_linear_90_5478" x1="6.63816" y1="14" x2="2.17181" y2="7.88787" gradientUnits="userSpaceOnUse">
<stop stop-color="#2779FF"/>
<stop offset="0.515625" stop-color="#3B9DFB"/>
<stop offset="1" stop-color="#4CBAFF"/>
</linearGradient>
<linearGradient id="paint3_linear_90_5478" x1="4.85349" y1="12.7098" x2="5.04181" y2="4.3706" gradientUnits="userSpaceOnUse">
<stop stop-color="#2779FF"/>
<stop offset="0.475799" stop-color="#3B9DFB"/>
<stop offset="1" stop-color="#4CBAFF"/>
</linearGradient>
<linearGradient id="paint4_linear_90_5478" x1="9.15932" y1="4.52942" x2="11.4937" y2="7.70549" gradientUnits="userSpaceOnUse">
<stop stop-color="#2779FF"/>
<stop offset="0.515625" stop-color="#3B9DFB"/>
<stop offset="1" stop-color="#4CBAFF"/>
</linearGradient>
</defs>
</svg>
