<svg width="145" height="34" viewBox="0 0 145 34" fill="none" xmlns="http://www.w3.org/2000/svg">
<path d="M48.7772 12.0766C47.5098 12.0766 46.5517 12.3557 45.9029 12.914C45.2541 13.4572 44.9296 14.2795 44.9296 15.381V16.3542H51.4479V19.2965H44.9296V25.0679H41.2631V15.4036C41.2631 13.3667 41.8968 11.7824 43.1643 10.6507C44.4468 9.51907 46.2348 8.95325 48.5283 8.95325C49.4336 8.95325 50.2861 9.05132 51.0858 9.24748C51.8855 9.42854 52.5796 9.70013 53.168 10.0623L52.0364 12.9593C51.1311 12.3708 50.0447 12.0766 48.7772 12.0766ZM58.0047 14.4983C58.4272 13.9099 58.993 13.4647 59.7022 13.163C60.4265 12.8612 61.2563 12.7103 62.1918 12.7103V15.9694C61.7995 15.9393 61.5355 15.9242 61.3997 15.9242C60.3887 15.9242 59.5966 16.2109 59.0232 16.7842C58.4499 17.3425 58.1632 18.1875 58.1632 19.3191V25.0679H54.6324V12.8914H58.0047V14.4983ZM70.3142 22.4198C70.9479 22.4198 71.5062 22.3293 71.989 22.1482C72.487 21.9521 72.9472 21.6503 73.3696 21.2429L75.2482 23.2799C74.1014 24.5926 72.4266 25.2489 70.2237 25.2489C68.8506 25.2489 67.636 24.9849 66.5798 24.4568C65.5236 23.9136 64.7088 23.1667 64.1354 22.2161C63.5621 21.2655 63.2754 20.1867 63.2754 18.9796C63.2754 17.7876 63.5545 16.7163 64.1128 15.7658C64.6862 14.8001 65.4632 14.0532 66.444 13.5251C67.4398 12.9819 68.5564 12.7103 69.7937 12.7103C70.9555 12.7103 72.0117 12.9593 72.9623 13.4572C73.9128 13.94 74.6673 14.6492 75.2255 15.5847C75.7989 16.5051 76.0856 17.599 76.0856 18.8665L67.0777 20.6092C67.3342 21.2127 67.7341 21.6654 68.2772 21.9672C68.8355 22.2689 69.5145 22.4198 70.3142 22.4198ZM69.7937 15.381C68.9034 15.381 68.1792 15.6677 67.6209 16.241C67.0626 16.8144 66.7684 17.6066 66.7382 18.6175L72.668 17.4632C72.5021 16.8295 72.1626 16.324 71.6495 15.9468C71.1365 15.5696 70.5179 15.381 69.7937 15.381ZM82.5554 25.2489C81.5445 25.2489 80.5562 25.1282 79.5905 24.8868C78.6248 24.6303 77.8553 24.3134 77.282 23.9362L78.4589 21.4013C79.0021 21.7484 79.6584 22.0351 80.4279 22.2614C81.1974 22.4726 81.9519 22.5783 82.6912 22.5783C84.185 22.5783 84.9319 22.2086 84.9319 21.4692C84.9319 21.1222 84.7282 20.8732 84.3208 20.7224C83.9134 20.5715 83.2872 20.4432 82.4423 20.3376C81.4464 20.1867 80.6241 20.0132 79.9753 19.817C79.3265 19.6209 78.7606 19.2738 78.2778 18.7759C77.8101 18.278 77.5762 17.5688 77.5762 16.6484C77.5762 15.8789 77.795 15.1999 78.2325 14.6115C78.6852 14.0079 79.334 13.5402 80.179 13.2082C81.039 12.8763 82.05 12.7103 83.2118 12.7103C84.0718 12.7103 84.9243 12.8084 85.7693 13.0045C86.6293 13.1856 87.3385 13.4421 87.8968 13.7741L86.7199 16.2863C85.6486 15.6828 84.4792 15.381 83.2118 15.381C82.4573 15.381 81.8915 15.4866 81.5143 15.6979C81.1371 15.9091 80.9485 16.1807 80.9485 16.5126C80.9485 16.8899 81.1522 17.1539 81.5596 17.3048C81.967 17.4557 82.6158 17.599 83.506 17.7348C84.5019 17.9008 85.3166 18.0818 85.9504 18.278C86.5841 18.4591 87.1348 18.7986 87.6026 19.2965C88.0703 19.7944 88.3042 20.4885 88.3042 21.3787C88.3042 22.1331 88.0779 22.8046 87.6252 23.393C87.1725 23.9815 86.5086 24.4417 85.6335 24.7736C84.7734 25.0905 83.7474 25.2489 82.5554 25.2489ZM97.8836 12.7103C99.3924 12.7103 100.607 13.163 101.527 14.0683C102.463 14.9736 102.931 16.3165 102.931 18.0969V25.0679H99.4V18.6401C99.4 17.6745 99.1887 16.9577 98.7662 16.49C98.3438 16.0072 97.7327 15.7658 96.933 15.7658C96.0427 15.7658 95.3336 16.0449 94.8055 16.6032C94.2774 17.1464 94.0133 17.9611 94.0133 19.0475V25.0679H90.4826V8.27426H94.0133V14.1588C94.4811 13.6911 95.0469 13.3365 95.7108 13.0951C96.3747 12.8386 97.0989 12.7103 97.8836 12.7103Z" fill="#212121"/>
<path d="M104.58 9.22411H106.255V23.6186H115.127V25.0671H104.58V9.22411ZM122.258 25.1803C121.111 25.1803 120.077 24.9238 119.157 24.4108C118.237 23.8827 117.512 23.1584 116.984 22.238C116.456 21.3176 116.192 20.2765 116.192 19.1147C116.192 17.9529 116.456 16.9118 116.984 15.9913C117.512 15.0709 118.237 14.3542 119.157 13.8412C120.077 13.3282 121.111 13.0717 122.258 13.0717C123.404 13.0717 124.438 13.3282 125.358 13.8412C126.279 14.3542 126.995 15.0709 127.509 15.9913C128.037 16.9118 128.301 17.9529 128.301 19.1147C128.301 20.2765 128.037 21.3176 127.509 22.238C126.995 23.1584 126.279 23.8827 125.358 24.4108C124.438 24.9238 123.404 25.1803 122.258 25.1803ZM122.258 23.7544C123.103 23.7544 123.857 23.5658 124.521 23.1886C125.2 22.7963 125.728 22.2456 126.105 21.5364C126.482 20.8272 126.671 20.02 126.671 19.1147C126.671 18.2094 126.482 17.4021 126.105 16.693C125.728 15.9838 125.2 15.4406 124.521 15.0634C123.857 14.6711 123.103 14.4749 122.258 14.4749C121.413 14.4749 120.651 14.6711 119.972 15.0634C119.308 15.4406 118.78 15.9838 118.387 16.693C118.01 17.4021 117.822 18.2094 117.822 19.1147C117.822 20.02 118.01 20.8272 118.387 21.5364C118.78 22.2456 119.308 22.7963 119.972 23.1886C120.651 23.5658 121.413 23.7544 122.258 23.7544ZM142.604 13.1622V23.6186C142.604 25.6405 142.106 27.1343 141.11 28.0999C140.129 29.0807 138.643 29.5711 136.651 29.5711C135.55 29.5711 134.501 29.4051 133.505 29.0732C132.524 28.7563 131.725 28.3112 131.106 27.7378L131.921 26.5156C132.494 27.0287 133.188 27.4285 134.003 27.7152C134.833 28.0019 135.701 28.1452 136.606 28.1452C138.115 28.1452 139.224 27.7906 139.933 27.0815C140.642 26.3874 140.997 25.301 140.997 23.8223V22.3059C140.499 23.0604 139.842 23.6337 139.028 24.026C138.228 24.4183 137.338 24.6145 136.357 24.6145C135.24 24.6145 134.222 24.3731 133.301 23.8902C132.396 23.3923 131.679 22.7058 131.151 21.8306C130.638 20.9404 130.382 19.937 130.382 18.8205C130.382 17.7039 130.638 16.7081 131.151 15.8329C131.679 14.9578 132.396 14.2788 133.301 13.796C134.207 13.3131 135.225 13.0717 136.357 13.0717C137.368 13.0717 138.281 13.2754 139.095 13.6828C139.91 14.0902 140.567 14.6786 141.065 15.4482V13.1622H142.604ZM136.515 23.1886C137.375 23.1886 138.152 23.0075 138.847 22.6454C139.541 22.2682 140.076 21.7476 140.453 21.0837C140.846 20.4199 141.042 19.6654 141.042 18.8205C141.042 17.9755 140.846 17.2286 140.453 16.5798C140.076 15.9159 139.541 15.4029 138.847 15.0408C138.168 14.6636 137.39 14.4749 136.515 14.4749C135.655 14.4749 134.878 14.656 134.184 15.0181C133.505 15.3803 132.97 15.8933 132.577 16.5572C132.2 17.2211 132.011 17.9755 132.011 18.8205C132.011 19.6654 132.2 20.4199 132.577 21.0837C132.97 21.7476 133.505 22.2682 134.184 22.6454C134.878 23.0075 135.655 23.1886 136.515 23.1886Z" fill="#212121"/>
<path d="M31.7636 7.78871C29.1421 9.90536 26.432 11.8918 23.4414 13.4548C19.4898 15.521 15.3352 16.9017 10.8548 17.0108C7.26606 17.0987 3.80949 16.4768 0.626985 14.6695C0.11269 14.3764 -0.0968977 14.0752 0.0417524 13.4483C1.55562 6.56756 6.70824 1.43874 13.5521 0.284354C20.3234 -0.855383 25.8355 1.44689 30.0563 6.90623C30.2691 7.17976 30.4641 7.46796 30.6754 7.76103C33.3581 5.64438 35.7345 3.25092 38.1705 0.680004C38.0593 1.45177 37.7981 1.98256 37.5756 2.53778C36.3143 5.58699 34.7676 8.50765 32.9566 11.26C32.8218 11.4558 32.7345 11.6809 32.7018 11.9171C32.669 12.1532 32.6917 12.3939 32.768 12.6196C35.1718 21.6528 29.8757 31.0182 20.8973 33.3677C14.2872 35.1001 8.62193 33.2325 3.93202 28.26C3.86887 28.1727 3.81229 28.0807 3.76273 27.9848C5.33625 27.9734 6.8485 28.006 8.35753 27.8546C14.1615 27.2684 19.1593 24.8278 23.5994 21.1236C28.8793 16.708 32.6277 11.0923 35.7554 5.00449C35.8763 4.77003 36.0359 4.5258 35.8086 4.14155L32.3827 7.27094L31.7636 7.78871Z" fill="url(#paint0_linear_90_5443)"/>
<path d="M31.7636 7.78871C29.1421 9.90536 26.432 11.8918 23.4414 13.4548C19.4898 15.521 15.3352 16.9017 10.8548 17.0108C7.26606 17.0987 3.80949 16.4768 0.626985 14.6695C0.11269 14.3764 -0.0968977 14.0752 0.0417524 13.4483C1.55562 6.56756 6.70824 1.43874 13.5521 0.284354C20.3234 -0.855383 25.8355 1.44689 30.0563 6.90623C30.2691 7.17976 30.4641 7.46796 30.6754 7.76103C33.3581 5.64438 35.7345 3.25092 38.1705 0.680004C38.0593 1.45177 37.7981 1.98256 37.5756 2.53778C36.3143 5.58699 34.7676 8.50765 32.9566 11.26C32.8218 11.4558 32.7345 11.6809 32.7018 11.9171C32.669 12.1532 32.6917 12.3939 32.768 12.6196C35.1718 21.6528 29.8757 31.0182 20.8973 33.3677C14.2872 35.1001 8.62193 33.2325 3.93202 28.26C3.86887 28.1727 3.81229 28.0807 3.76273 27.9848C5.33625 27.9734 6.8485 28.006 8.35753 27.8546C14.1615 27.2684 19.1593 24.8278 23.5994 21.1236C28.8793 16.708 32.6277 11.0923 35.7554 5.00449C35.8763 4.77003 36.0359 4.5258 35.8086 4.14155L32.3827 7.27094L31.7636 7.78871Z" fill="url(#paint1_linear_90_5443)"/>
<defs>
<linearGradient id="paint0_linear_90_5443" x1="5.01819e-07" y1="0.439049" x2="26.5888" y2="41.4997" gradientUnits="userSpaceOnUse">
<stop stop-color="#96D0FF"/>
<stop offset="0.489583" stop-color="#4F96D7"/>
<stop offset="1" stop-color="#4FA6F6"/>
</linearGradient>
<linearGradient id="paint1_linear_90_5443" x1="5.01819e-07" y1="0.439049" x2="26.5888" y2="41.4997" gradientUnits="userSpaceOnUse">
<stop offset="0.015625" stop-color="#4F5FF6"/>
<stop offset="1" stop-color="#4F56F6"/>
</linearGradient>
</defs>
</svg>
