<svg width="24" height="24" viewBox="0 0 24 24" fill="none" xmlns="http://www.w3.org/2000/svg">
<g id="behance" clip-path="url(#clip0_107_4766)">
<g id="Group">
<path id="Vector" d="M9.579 9.57296C9.579 8.62496 8.845 8.39996 8.03 8.39996H5.909V10.8H8.196C9.005 10.8 9.579 10.446 9.579 9.57296Z" fill="white"/>
<path id="Vector_2" d="M16.666 10.816C15.686 10.816 15.032 11.427 14.968 12.407H18.3C18.209 11.416 17.695 10.816 16.666 10.816Z" fill="white"/>
<path id="Vector_3" d="M8.368 12.509H5.904V15.343H8.32C9.242 15.343 9.992 15.016 9.992 13.982C9.991 12.927 9.364 12.514 8.368 12.509Z" fill="white"/>
<path id="Vector_4" d="M19.75 0.299988H4.25C1.9 0.299988 0 2.19999 0 4.54999V19.45C0 21.8 1.9 23.7 4.25 23.7H19.75C22.1 23.7 24 21.8 24 19.45V4.54999C24 2.19999 22.1 0.299988 19.75 0.299988ZM14.555 7.18399H18.723V8.19599H14.555V7.18399ZM8.63 17.1H3.643V6.81399H8.491C10.254 6.81399 11.78 7.31199 11.78 9.35799C11.78 10.392 11.298 10.901 10.376 11.34C11.64 11.699 12.251 12.814 12.251 14.105C12.252 16.195 10.5 17.089 8.63 17.1ZM20.341 13.698H14.973C14.973 14.887 15.6 15.589 16.8 15.589C17.421 15.589 18.22 15.257 18.418 14.619H20.223C19.666 16.328 18.514 17.126 16.736 17.126C14.39 17.126 12.927 15.535 12.927 13.215C12.927 10.976 14.465 9.27299 16.736 9.27299C19.066 9.27299 20.357 11.11 20.357 13.312C20.357 13.441 20.346 13.575 20.341 13.698Z" fill="white"/>
</g>
</g>
<defs>
<clipPath id="clip0_107_4766">
<rect width="24" height="24" fill="white"/>
</clipPath>
</defs>
</svg>
