<svg width="26" height="26" viewBox="0 0 26 26" fill="none" xmlns="http://www.w3.org/2000/svg">
<g id="cake-birthday 1" clip-path="url(#clip0_90_5742)">
<path id="Vector" d="M24.9167 23.8333H23.8333V15.1667C23.8316 13.7306 23.2604 12.3539 22.2449 11.3384C21.2295 10.323 19.8527 9.75172 18.4167 9.75H14.0833V6.54225C14.5659 6.33163 14.9767 5.98489 15.2653 5.54448C15.5539 5.10406 15.7079 4.58906 15.7083 4.0625C15.4157 2.67776 14.7564 1.39705 13.7995 0.354252C13.698 0.243243 13.5745 0.154587 13.4368 0.0939327C13.2992 0.033278 13.1504 0.00195313 13 0.00195312C12.8496 0.00195313 12.7008 0.033278 12.5632 0.0939327C12.4255 0.154587 12.302 0.243243 12.2005 0.354252C11.2436 1.39705 10.5843 2.67776 10.2917 4.0625C10.2921 4.58906 10.4461 5.10406 10.7347 5.54448C11.0233 5.98489 11.4341 6.33163 11.9167 6.54225V9.75H7.58333C6.14727 9.75172 4.77052 10.323 3.75507 11.3384C2.73962 12.3539 2.16839 13.7306 2.16667 15.1667V23.8333H1.08333C0.796016 23.8333 0.520465 23.9475 0.317301 24.1506C0.114137 24.3538 0 24.6294 0 24.9167C0 25.204 0.114137 25.4795 0.317301 25.6827C0.520465 25.8859 0.796016 26 1.08333 26H24.9167C25.204 26 25.4795 25.8859 25.6827 25.6827C25.8859 25.4795 26 25.204 26 24.9167C26 24.6294 25.8859 24.3538 25.6827 24.1506C25.4795 23.9475 25.204 23.8333 24.9167 23.8333ZM7.58333 11.9167H18.4167C19.2786 11.9167 20.1053 12.2591 20.7148 12.8686C21.3243 13.4781 21.6667 14.3047 21.6667 15.1667V17.3117C20.6527 17.2033 20.0417 16.5533 20.0417 16.25C20.0417 15.9627 19.9275 15.6871 19.7244 15.484C19.5212 15.2808 19.2457 15.1667 18.9583 15.1667C18.671 15.1667 18.3955 15.2808 18.1923 15.484C17.9891 15.6871 17.875 15.9627 17.875 16.25C17.875 16.6216 17.1362 17.3333 15.9792 17.3333C14.7994 17.3333 14.0833 16.5815 14.0833 16.25C14.0833 15.9627 13.9692 15.6871 13.766 15.484C13.5629 15.2808 13.2873 15.1667 13 15.1667C12.7127 15.1667 12.4371 15.2808 12.234 15.484C12.0308 15.6871 11.9167 15.9627 11.9167 16.25C11.9167 16.6216 11.1778 17.3333 10.0208 17.3333C8.84108 17.3333 8.125 16.5815 8.125 16.25C8.125 15.9627 8.01086 15.6871 7.8077 15.484C7.60453 15.2808 7.32898 15.1667 7.04167 15.1667C6.75435 15.1667 6.4788 15.2808 6.27563 15.484C6.07247 15.6871 5.95833 15.9627 5.95833 16.25C5.95833 16.5913 5.33108 17.212 4.33333 17.3128V15.1667C4.33333 14.3047 4.67574 13.4781 5.28524 12.8686C5.89473 12.2591 6.72138 11.9167 7.58333 11.9167ZM4.33333 19.4773C5.32859 19.4331 6.28109 19.0601 7.04167 18.4167C7.87731 19.1133 8.93001 19.4961 10.0179 19.4991C11.1058 19.502 12.1606 19.1249 13 18.4329C13.8394 19.1249 14.8942 19.502 15.9821 19.4991C17.07 19.4961 18.1227 19.1133 18.9583 18.4167C19.7191 19.0597 20.6715 19.4323 21.6667 19.4762V23.8333H4.33333V19.4773Z" fill="#4F5FF6"/>
</g>
<defs>
<clipPath id="clip0_90_5742">
<rect width="26" height="26" fill="white"/>
</clipPath>
</defs>
</svg>
