<svg width="164" height="164" viewBox="0 0 164 164" fill="none" xmlns="http://www.w3.org/2000/svg">
<g id="Layer_1" opacity="0.5" clip-path="url(#clip0_139_5839)">
<path id="Vector" d="M163.964 98.1349V106.448C163.592 106.613 163.663 106.971 163.62 107.265C163.324 109.588 162.806 111.877 162.072 114.101C156.454 130.462 142.286 140.617 124.987 140.617C94.7404 140.617 64.494 140.617 34.2476 140.617C25.1034 140.617 17.0844 137.657 10.5344 131.25C2.46522 123.367 -0.859924 113.628 0.773984 102.485C2.20724 92.7101 7.33111 85.078 15.6368 79.6818C16.6616 79.0154 16.9697 78.4134 16.5828 77.2668C15.6454 74.2036 15.4465 70.9621 16.0023 67.8073C17.7795 55.2018 31.0084 46.1795 43.3344 49.175C46.0648 49.8415 45.4198 50.1066 46.6452 47.6988C56.4845 28.4215 79.6459 18.3887 100.299 25.0104C118.645 30.8939 129.315 43.7573 132.547 62.7336C132.812 64.2672 133.343 64.7975 134.783 65.1916C149.832 69.2907 159.206 78.9509 163.061 94.0358C163.398 95.3974 163.262 96.8594 163.964 98.1349ZM107.48 74.7944C107.429 74.3104 107.341 73.8312 107.215 73.3612C105.817 68.8822 100.421 67.6282 96.9238 70.9963C93.097 74.6941 89.3562 78.4851 85.6297 82.2903C84.8701 83.0715 84.4545 83.1431 83.6518 82.2903C80.0114 78.5496 76.2921 74.8948 72.6086 71.197C70.9246 69.4986 68.9395 68.6243 66.546 69.1761C61.6872 70.3012 60.0963 76.0127 63.6795 79.7033C67.2626 83.3939 70.9174 87.0774 74.651 90.6462C75.812 91.7498 75.6686 92.2873 74.6008 93.3192C70.9174 96.8689 67.3008 100.481 63.7511 104.155C60.5908 107.437 61.6013 112.553 65.6789 114.187C68.3519 115.277 70.6952 114.56 72.666 112.575C76.3279 108.935 79.997 105.301 83.6088 101.603C84.3613 100.829 84.7698 100.715 85.5724 101.568C87.6148 103.717 89.7575 105.81 91.8787 107.91C93.7276 109.744 95.4619 111.694 97.4756 113.363C98.2481 114.024 99.1742 114.481 100.169 114.691C101.164 114.902 102.195 114.859 103.169 114.567C104.144 114.276 105.029 113.744 105.744 113.022C106.46 112.3 106.983 111.409 107.265 110.432C107.981 107.895 107.215 105.738 105.358 103.904C101.689 100.27 98.0847 96.5727 94.3726 92.9824C93.4266 92.0723 93.5771 91.6136 94.4227 90.7824C98.1205 87.1992 101.74 83.4943 105.401 79.8538C106.095 79.2122 106.64 78.4271 106.999 77.5533C107.358 76.6796 107.522 75.7381 107.48 74.7944Z" fill="#E2584D"/>
<path id="Vector_2" d="M163.964 98.1347C163.248 96.8591 163.398 95.3972 163.047 94.0356C159.191 78.9506 149.789 69.2905 134.769 65.1914C133.336 64.7973 132.798 64.267 132.533 62.7334C129.315 43.7571 118.645 30.8937 100.285 25.0102C79.6459 18.3885 56.4845 28.4213 46.6452 47.7702C45.4198 50.1781 46.0647 49.9201 43.3344 49.2465C31.0084 46.2366 17.7795 55.259 16.0023 67.8788C15.4465 71.0335 15.6454 74.2751 16.5827 77.3382C16.9697 78.4848 16.6615 79.0868 15.6368 79.7533C7.33107 85.1495 2.21436 92.7815 0.773943 102.556C-0.859966 113.7 2.46518 123.417 10.5344 131.322C17.0844 137.728 25.1034 140.688 34.2476 140.688C64.4988 140.688 94.7452 140.688 124.987 140.688C142.286 140.688 156.454 130.519 162.072 114.173C162.806 111.949 163.324 109.659 163.62 107.336C163.663 107.042 163.62 106.684 163.964 106.519C163.964 125.257 163.964 143.999 163.964 162.746C163.964 163.806 163.792 164.064 162.674 164.064C108.894 164.031 55.111 164.031 1.32574 164.064C0.107472 164.064 -0.0286865 163.728 -0.0286865 162.631C-2.14577e-05 108.903 -2.14577e-05 55.1801 -0.0286865 1.46182C-0.0286865 0.351046 0.143307 0.0285645 1.34007 0.0285645C55.0632 0.071562 108.791 0.071562 162.524 0.0285645C163.778 0.0285645 163.957 0.372543 163.957 1.52631C163.928 33.722 163.931 65.9248 163.964 98.1347Z" fill="#FFFFFE"/>
<path id="Vector_3" d="M107.48 74.7943C107.526 75.7462 107.363 76.6967 107.001 77.5785C106.64 78.4602 106.089 79.2516 105.387 79.8967C101.725 83.5372 98.1062 87.2206 94.4084 90.8253C93.5628 91.6566 93.4123 92.1152 94.3583 93.0253C98.0704 96.6085 101.675 100.313 105.344 103.947C107.2 105.781 107.981 107.938 107.25 110.475C106.968 111.452 106.445 112.342 105.73 113.065C105.015 113.787 104.129 114.319 103.155 114.61C102.181 114.902 101.149 114.945 100.155 114.734C99.1599 114.524 98.2338 114.067 97.4612 113.406C95.4762 111.736 93.7133 109.823 91.8644 107.953C89.7145 105.853 87.6005 103.782 85.5581 101.611C84.7555 100.758 84.347 100.894 83.5945 101.646C80.0114 105.344 76.3136 108.977 72.6516 112.618C70.6666 114.603 68.3519 115.32 65.6645 114.23C61.5941 112.575 60.5765 107.458 63.7368 104.198C67.2769 100.514 70.8935 96.9023 74.5865 93.3621C75.6543 92.3302 75.7976 91.7927 74.6367 90.6891C70.9007 87.1203 67.2435 83.4727 63.6651 79.7462C60.082 76.0556 61.6872 70.3441 66.5316 69.219C68.9252 68.6672 70.9102 69.5415 72.5943 71.2399C76.2778 74.9377 79.9971 78.5925 83.6375 82.3333C84.4402 83.1574 84.8558 83.0857 85.6154 82.3333C89.3419 78.528 93.0827 74.737 96.9095 71.0392C100.407 67.6496 105.803 68.9252 107.2 73.4041C107.329 73.8596 107.422 74.3244 107.48 74.7943Z" fill="#FFFDFC"/>
</g>
<defs>
<clipPath id="clip0_139_5839">
<rect width="164" height="164" fill="white"/>
</clipPath>
</defs>
</svg>
