<svg width="14" height="14" viewBox="0 0 14 14" fill="none" xmlns="http://www.w3.org/2000/svg">
<g id="edit (2) 1">
<g id="Group 657">
<path id="Vector" d="M10.328 1.46491L4.23199 7.56091C3.99917 7.79248 3.81458 8.06794 3.68894 8.37133C3.56329 8.67472 3.49907 9.00003 3.49999 9.32841V9.99991C3.49999 10.1325 3.55267 10.2597 3.64644 10.3535C3.74021 10.4472 3.86739 10.4999 3.99999 10.4999H4.67149C4.99987 10.5008 5.32518 10.4366 5.62857 10.311C5.93196 10.1853 6.20742 10.0007 6.43899 9.76791L12.535 3.67191C12.8272 3.379 12.9913 2.98215 12.9913 2.56841C12.9913 2.15468 12.8272 1.75783 12.535 1.46491C12.2378 1.18086 11.8426 1.02234 11.4315 1.02234C11.0204 1.02234 10.6252 1.18086 10.328 1.46491ZM11.828 2.96491L5.73199 9.06091C5.45006 9.34113 5.069 9.49887 4.67149 9.49991H4.49999V9.32841C4.50104 8.93091 4.65878 8.54985 4.93899 8.26791L11.035 2.17191C11.1418 2.06989 11.2838 2.01296 11.4315 2.01296C11.5792 2.01296 11.7212 2.06989 11.828 2.17191C11.933 2.27717 11.9919 2.41976 11.9919 2.56841C11.9919 2.71707 11.933 2.85966 11.828 2.96491Z" fill="#4F5FF6"/>
<path id="Vector_2" d="M12.5 5.4895C12.3674 5.4895 12.2402 5.54218 12.1464 5.63594C12.0527 5.72971 12 5.85689 12 5.9895V8.5H9.99999C9.60217 8.5 9.22064 8.65803 8.93933 8.93934C8.65803 9.22064 8.5 9.60217 8.5 10V12H3.5C3.10217 12 2.72064 11.842 2.43934 11.5607C2.15803 11.2794 2 10.8978 2 10.5V3.5C2 3.10217 2.15803 2.72064 2.43934 2.43934C2.72064 2.15803 3.10217 2 3.5 2H8.021C8.1536 2 8.28078 1.94732 8.37455 1.85355C8.46832 1.75978 8.521 1.63261 8.521 1.5C8.521 1.36739 8.46832 1.24021 8.37455 1.14645C8.28078 1.05268 8.1536 1 8.021 1H3.5C2.8372 1.00079 2.20178 1.26444 1.73311 1.73311C1.26444 2.20178 1.00079 2.8372 1 3.5L1 10.5C1.00079 11.1628 1.26444 11.7982 1.73311 12.2669C2.20178 12.7356 2.8372 12.9992 3.5 13H9.17149C9.49995 13.0009 9.82533 12.9367 10.1288 12.8111C10.4323 12.6854 10.7078 12.5008 10.9395 12.268L12.2675 10.939C12.5004 10.7074 12.685 10.432 12.8107 10.1286C12.9365 9.82521 13.0008 9.4999 13 9.1715V5.9895C13 5.85689 12.9473 5.72971 12.8535 5.63594C12.7598 5.54218 12.6326 5.4895 12.5 5.4895ZM10.2325 11.561C10.0315 11.7615 9.77733 11.9003 9.49999 11.961V10C9.49999 9.86739 9.55267 9.74021 9.64644 9.64644C9.74021 9.55267 9.86739 9.5 9.99999 9.5H11.9625C11.9006 9.77675 11.762 10.0305 11.5625 10.232L10.2325 11.561Z" fill="#4F5FF6"/>
</g>
</g>
</svg>
