<svg width="14" height="14" viewBox="0 0 14 14" fill="none" xmlns="http://www.w3.org/2000/svg">
<g id="eye (7) 1">
<g id="01 align center">
<path id="Vector" d="M13.8956 6.52225C13.3834 5.40225 11.375 1.75 7 1.75C2.625 1.75 0.616585 5.40225 0.104418 6.52225C0.0356652 6.67234 7.62939e-05 6.83549 7.62939e-05 7.00058C7.62939e-05 7.16567 0.0356652 7.32882 0.104418 7.47892C0.616585 8.59775 2.625 12.25 7 12.25C11.375 12.25 13.3834 8.59775 13.8956 7.47775C13.9642 7.32783 13.9997 7.16488 13.9997 7C13.9997 6.83512 13.9642 6.67217 13.8956 6.52225ZM7 11.0833C3.32092 11.0833 1.60417 7.95317 1.16667 7.00642C1.60417 6.04683 3.32092 2.91667 7 2.91667C10.6703 2.91667 12.3877 6.03342 12.8333 7C12.3877 7.96658 10.6703 11.0833 7 11.0833Z" fill="#4F5FF6"/>
<path id="Vector_2" d="M7 4.08337C6.42313 4.08337 5.85923 4.25443 5.37958 4.57492C4.89994 4.89541 4.5261 5.35093 4.30535 5.88388C4.08459 6.41683 4.02683 7.00328 4.13937 7.56905C4.25191 8.13483 4.5297 8.65453 4.9376 9.06244C5.3455 9.47034 5.8652 9.74813 6.43098 9.86066C6.99676 9.97321 7.5832 9.91545 8.11616 9.69469C8.64911 9.47393 9.10463 9.1001 9.42512 8.62045C9.7456 8.14081 9.91666 7.5769 9.91666 7.00004C9.91574 6.22678 9.60815 5.48545 9.06137 4.93867C8.51459 4.39189 7.77326 4.0843 7 4.08337ZM7 8.75004C6.65388 8.75004 6.31553 8.64741 6.02775 8.45511C5.73996 8.26282 5.51566 7.98951 5.38321 7.66974C5.25075 7.34997 5.2161 6.9981 5.28362 6.65863C5.35115 6.31917 5.51782 6.00735 5.76256 5.7626C6.0073 5.51786 6.31912 5.35119 6.65859 5.28367C6.99805 5.21614 7.34992 5.2508 7.66969 5.38325C7.98946 5.5157 8.26278 5.74001 8.45507 6.02779C8.64736 6.31558 8.75 6.65392 8.75 7.00004C8.75 7.46417 8.56562 7.90929 8.23743 8.23748C7.90924 8.56567 7.46413 8.75004 7 8.75004Z" fill="#4F5FF6"/>
</g>
</g>
</svg>
