<svg width="14" height="14" viewBox="0 0 14 14" fill="none" xmlns="http://www.w3.org/2000/svg">
<g id="file-edit (2) 1" clip-path="url(#clip0_107_4779)">
<path id="Vector" d="M1.16667 1.75C1.16667 1.42858 1.42858 1.16667 1.75 1.16667H6.41667V5.25H10.5V5.83625C10.8418 5.58425 11.242 5.40867 11.6667 5.32467V4.42517L7.2415 0H1.75C0.785167 0 0 0.785167 0 1.75V14H5.25V12.8333H1.16667V1.75ZM7.58333 1.9915L9.67517 4.08333H7.58333V1.9915ZM13.4878 6.92942C12.8263 6.26792 11.6737 6.26792 11.0127 6.92942L6.41667 11.5249V14H8.89175L13.4872 9.4045C13.818 9.07375 14 8.6345 14 8.16667C14 7.69883 13.818 7.25958 13.4878 6.92942ZM12.6624 8.57908L8.40875 12.8333H7.58333V12.0079L11.8376 7.75425C12.0575 7.53375 12.4419 7.53375 12.6624 7.75425C12.7727 7.86392 12.8333 8.01033 12.8333 8.16667C12.8333 8.323 12.7727 8.46883 12.6624 8.57908Z" fill="white"/>
</g>
<defs>
<clipPath id="clip0_107_4779">
<rect width="14" height="14" fill="white"/>
</clipPath>
</defs>
</svg>
