<svg width="52" height="50" viewBox="0 0 52 50" fill="none" xmlns="http://www.w3.org/2000/svg">
<path d="M35.1054 4.8423V8.62745V8.82353H12.2971C10.5901 8.82353 9.20631 10.2073 9.20631 11.9144V33.8235H5.04836C2.26023 33.8235 0 31.5633 0 28.7752V5.15138C0 2.30635 2.30635 0 5.15138 0H30.2631C32.9374 0 35.1054 2.16797 35.1054 4.8423Z" fill="url(#paint0_linear_90_5518)"/>
<path d="M9.90566 4.60803H30.8891C33.2173 4.60803 35.1047 6.49546 35.1047 8.82372L12.279 8.95333C10.5788 8.96298 9.20568 10.3439 9.20568 12.0441V33.8153C6.74723 33.8153 4.75427 31.8223 4.75427 29.3639V9.75942C4.75427 6.91439 7.06063 4.60803 9.90566 4.60803Z" fill="url(#paint1_linear_90_5518)"/>
<path d="M16.8945 45.1579V41.3727V41.1767H39.7027C41.4098 41.1767 42.7936 39.7928 42.7936 38.0858V16.1767H46.9515C49.7397 16.1767 51.9999 18.4369 51.9999 21.225V44.8488C51.9999 47.6938 49.6935 50.0002 46.8485 50.0002H21.7368C19.0625 50.0002 16.8945 47.8322 16.8945 45.1579Z" fill="url(#paint2_linear_90_5518)"/>
<path d="M42.0936 45.3924H21.1102C18.7819 45.3924 16.8945 43.505 16.8945 41.1767L39.7203 41.0471C41.4205 41.0374 42.7936 39.6565 42.7936 37.9563V16.1851C45.252 16.1851 47.245 18.1781 47.245 20.6365V40.241C47.245 43.086 44.9386 45.3924 42.0936 45.3924Z" fill="url(#paint3_linear_90_5518)"/>
<path d="M16.8943 21.1218C16.8943 18.3906 19.1084 16.1765 21.8396 16.1765H35.1045V28.8782C35.1045 31.6095 32.8904 33.8236 30.1591 33.8236H16.8943V21.1218Z" fill="url(#paint4_linear_90_5518)"/>
<defs>
<linearGradient id="paint0_linear_90_5518" x1="28.8934" y1="-6.52266e-06" x2="44.9648" y2="21.4357" gradientUnits="userSpaceOnUse">
<stop stop-color="#2779FF"/>
<stop offset="0.515625" stop-color="#3B9DFB"/>
<stop offset="1" stop-color="#4CBAFF"/>
</linearGradient>
<linearGradient id="paint1_linear_90_5518" x1="35.1048" y1="4.60803" x2="34.4147" y2="34.3902" gradientUnits="userSpaceOnUse">
<stop stop-color="#2779FF"/>
<stop offset="0.475799" stop-color="#3B9DFB"/>
<stop offset="1" stop-color="#4CBAFF"/>
</linearGradient>
<linearGradient id="paint2_linear_90_5518" x1="23.1064" y1="50.0002" x2="7.03504" y2="28.5645" gradientUnits="userSpaceOnUse">
<stop stop-color="#2779FF"/>
<stop offset="0.515625" stop-color="#3B9DFB"/>
<stop offset="1" stop-color="#4CBAFF"/>
</linearGradient>
<linearGradient id="paint3_linear_90_5518" x1="16.8945" y1="45.3924" x2="17.5846" y2="15.6102" gradientUnits="userSpaceOnUse">
<stop stop-color="#2779FF"/>
<stop offset="0.475799" stop-color="#3B9DFB"/>
<stop offset="1" stop-color="#4CBAFF"/>
</linearGradient>
<linearGradient id="paint4_linear_90_5518" x1="31.8822" y1="16.1765" x2="40.2807" y2="27.3137" gradientUnits="userSpaceOnUse">
<stop stop-color="#2779FF"/>
<stop offset="0.515625" stop-color="#3B9DFB"/>
<stop offset="1" stop-color="#4CBAFF"/>
</linearGradient>
</defs>
</svg>
