<svg width="26" height="26" viewBox="0 0 26 26" fill="none" xmlns="http://www.w3.org/2000/svg">
<g id="gift-card 1" clip-path="url(#clip0_90_5733)">
<path id="Vector" d="M20.5833 6.50001H19.2552C20.7859 5.00501 21.0199 3.03876 19.8456 1.47334C19.2552 0.684677 18.3939 0.17551 17.42 0.0368435C16.4428 -0.105073 15.4754 0.147344 14.6889 0.736677C13.9544 1.28701 13.4128 1.98793 13.013 2.70076C12.6133 1.98684 12.0716 1.28701 11.3371 0.736677C10.5506 0.14626 9.581 -0.105073 8.60708 0.0368435C7.63317 0.17551 6.77192 0.68576 6.1815 1.47334C5.01367 3.03009 5.239 4.98334 6.77408 6.50001H5.41667C2.42992 6.50001 0 8.92993 0 11.9167V20.5833C0 23.5701 2.42992 26 5.41667 26H20.5833C23.5701 26 26 23.5701 26 20.5833V11.9167C26 8.92993 23.5701 6.50001 20.5833 6.50001ZM15.99 2.47001C16.2554 2.27068 16.5718 2.16668 16.8968 2.16668C17.3333 2.16668 17.8696 2.44943 18.1133 2.77334C18.8078 3.69851 18.1599 4.55434 17.7418 4.95409C16.0507 6.45451 14.2567 6.50001 14.1039 6.50109H14.0898C14.1104 6.40251 14.1169 6.29959 14.1083 6.19451L14.1061 6.17176C14.2025 5.52393 14.6055 3.50784 15.99 2.47001ZM8.31567 4.97901C7.86717 4.55109 7.22042 3.69851 7.91483 2.77226C8.15858 2.44834 8.51283 2.23818 8.91367 2.18076C9.31775 2.12876 9.71425 2.22734 10.0382 2.47001C11.4237 3.50893 11.8267 5.52718 11.9232 6.17068L11.921 6.19343C11.9123 6.29851 11.9188 6.40143 11.9394 6.50001H11.9253C11.7726 6.50001 9.97858 6.45343 8.31567 4.97901ZM5.41667 8.66559H11.726C10.9124 10.7792 7.7545 10.8312 7.58117 10.8323C6.98317 10.8323 6.49892 11.3176 6.49892 11.9156C6.49892 12.5136 6.98425 12.9989 7.58225 12.9989C9.11733 12.9989 11.5873 12.4703 12.9989 10.7716C14.4105 12.4713 16.8805 12.9989 18.4156 12.9989C19.0136 12.9989 19.4989 12.5147 19.4989 11.9156C19.4989 11.3165 19.0136 10.8323 18.4156 10.8323C18.2618 10.8323 15.0811 10.8041 14.2697 8.66559H20.5823C22.3741 8.66559 23.8323 10.1238 23.8323 11.9156V18.4156H2.16667V11.9156C2.16667 10.1238 3.62483 8.66559 5.41667 8.66559ZM20.5833 23.8323H5.41667C3.62483 23.8323 2.16667 22.3741 2.16667 20.5823H23.8333C23.8333 22.3741 22.3752 23.8323 20.5833 23.8323Z" fill="#4F5FF6"/>
</g>
<defs>
<clipPath id="clip0_90_5733">
<rect width="26" height="26" fill="white"/>
</clipPath>
</defs>
</svg>
