<svg width="24" height="24" viewBox="0 0 24 24" fill="none" xmlns="http://www.w3.org/2000/svg">
<g id="linkedin (2)">
<g id="Group">
<path id="Path_2520" d="M19.291 19.2911H16.284V14.5821C16.284 13.4591 16.264 12.0141 14.72 12.0141C13.154 12.0141 12.914 13.2371 12.914 14.5011V19.2911H9.908V9.60714H12.795V10.9301H12.835C13.424 9.92414 14.518 9.32314 15.683 9.36614C18.731 9.36614 19.292 11.3711 19.292 13.9781L19.291 19.2911ZM6.515 8.28314C5.551 8.28314 4.77 7.50214 4.77 6.53814C4.77 5.57414 5.551 4.79314 6.515 4.79314C7.479 4.79314 8.26 5.57414 8.26 6.53814C8.26 7.50214 7.479 8.28314 6.515 8.28314ZM8.018 19.2911H5.008V9.60714H8.018V19.2911ZM20.79 2.00114H3.497C2.68 1.99214 2.01 2.64714 2 3.46414V20.8281C2.01 21.6461 2.68 22.3011 3.497 22.2921H20.79C21.609 22.3021 22.282 21.6471 22.293 20.8281V3.46314C22.281 2.64414 21.608 1.98914 20.79 2.00014" fill="white"/>
</g>
</g>
</svg>
