<svg width="14" height="14" viewBox="0 0 14 14" fill="none" xmlns="http://www.w3.org/2000/svg">
<g id="picture (3) 1" clip-path="url(#clip0_107_5498)">
<g id="01 align center">
<path id="Vector" d="M12.25 0H1.75C1.28587 0 0.840752 0.184374 0.512563 0.512563C0.184374 0.840752 0 1.28587 0 1.75L0 14H14V1.75C14 1.28587 13.8156 0.840752 13.4874 0.512563C13.1592 0.184374 12.7141 0 12.25 0ZM1.75 1.16667H12.25C12.4047 1.16667 12.5531 1.22812 12.6625 1.33752C12.7719 1.44692 12.8333 1.59529 12.8333 1.75V12.0085L6.48725 5.66242C6.15908 5.33434 5.71404 5.15004 5.25 5.15004C4.78596 5.15004 4.34092 5.33434 4.01275 5.66242L1.16667 8.5085V1.75C1.16667 1.59529 1.22812 1.44692 1.33752 1.33752C1.44692 1.22812 1.59529 1.16667 1.75 1.16667ZM1.16667 10.1582L4.83758 6.48725C4.94697 6.37789 5.09532 6.31646 5.25 6.31646C5.40468 6.31646 5.55303 6.37789 5.66242 6.48725L12.0085 12.8333H1.16667V10.1582Z" fill="#596780"/>
<path id="Vector_2" d="M9.33337 5.83334C9.67949 5.83334 10.0178 5.73071 10.3056 5.53842C10.5934 5.34612 10.8177 5.07281 10.9502 4.75304C11.0826 4.43327 11.1173 4.0814 11.0497 3.74194C10.9822 3.40247 10.8156 3.09065 10.5708 2.84591C10.3261 2.60117 10.0142 2.43449 9.67478 2.36697C9.33532 2.29945 8.98345 2.3341 8.66368 2.46656C8.34391 2.59901 8.07059 2.82331 7.8783 3.1111C7.68601 3.39888 7.58337 3.73723 7.58337 4.08334C7.58337 4.54747 7.76775 4.99259 8.09594 5.32078C8.42413 5.64897 8.86925 5.83334 9.33337 5.83334ZM9.33337 3.50001C9.44875 3.50001 9.56153 3.53422 9.65746 3.59832C9.75339 3.66242 9.82815 3.75352 9.8723 3.86011C9.91646 3.9667 9.92801 4.08399 9.9055 4.19715C9.88299 4.3103 9.82743 4.41424 9.74585 4.49582C9.66427 4.5774 9.56033 4.63296 9.44718 4.65547C9.33402 4.67798 9.21673 4.66643 9.11014 4.62227C9.00355 4.57812 8.91245 4.50336 8.84835 4.40743C8.78425 4.3115 8.75004 4.19872 8.75004 4.08334C8.75004 3.92863 8.8115 3.78026 8.9209 3.67087C9.03029 3.56147 9.17866 3.50001 9.33337 3.50001Z" fill="#596780"/>
</g>
</g>
<defs>
<clipPath id="clip0_107_5498">
<rect width="14" height="14" fill="white"/>
</clipPath>
</defs>
</svg>
