<svg width="15" height="15" viewBox="0 0 15 15" fill="none" xmlns="http://www.w3.org/2000/svg">
<path fill-rule="evenodd" clip-rule="evenodd" d="M6.25 12.25C7.6345 12.25 8.90725 11.7737 9.92275 10.984L13.2198 14.281L14.2802 13.2205L10.9832 9.9235C11.7738 8.90725 12.25 7.6345 12.25 6.25C12.25 2.94175 9.55825 0.25 6.25 0.25C2.94175 0.25 0.25 2.94175 0.25 6.25C0.25 9.55825 2.94175 12.25 6.25 12.25ZM6.25001 1.75034C8.73176 1.75034 10.75 3.76859 10.75 6.25034C10.75 8.73209 8.73176 10.7503 6.25001 10.7503C3.76826 10.7503 1.75001 8.73209 1.75001 6.25034C1.75001 3.76859 3.76826 1.75034 6.25001 1.75034Z" fill="#939393"/>
<path fill-rule="evenodd" clip-rule="evenodd" d="M7.30899 5.18956C7.59324 5.47456 7.74999 5.85106 7.74999 6.25006H9.24999C9.24999 5.45131 8.93799 4.69831 8.36949 4.12906C7.23399 2.99506 5.26524 2.99506 4.13049 4.12906L5.18949 5.19106C5.75949 4.62256 6.74199 4.62406 7.30899 5.18956Z" fill="#939393"/>
</svg>
