<svg width="26" height="26" viewBox="0 0 26 26" fill="none" xmlns="http://www.w3.org/2000/svg">
<g id="users-alt (3) 1" clip-path="url(#clip0_90_5724)">
<path id="Vector" d="M6.87808 11.9167H3.25C2.96268 11.9167 2.68713 12.0308 2.48397 12.234C2.2808 12.4371 2.16667 12.7127 2.16667 13V16.25H0V13C0 12.138 0.34241 11.3114 0.951903 10.7019C1.5614 10.0924 2.38805 9.75 3.25 9.75H8.16508C7.59832 10.381 7.16104 11.1171 6.87808 11.9167ZM22.75 9.75H17.8349C18.4017 10.381 18.839 11.1171 19.1219 11.9167H22.75C23.0373 11.9167 23.3129 12.0308 23.516 12.234C23.7192 12.4371 23.8333 12.7127 23.8333 13V16.25H26V13C26 12.138 25.6576 11.3114 25.0481 10.7019C24.4386 10.0924 23.612 9.75 22.75 9.75ZM17.3333 14.0833C17.3333 13.2263 17.0792 12.3885 16.603 11.6759C16.1269 10.9633 15.4501 10.4078 14.6583 10.0799C13.8665 9.75188 12.9952 9.66606 12.1546 9.83327C11.314 10.0005 10.5419 10.4132 9.93587 11.0192C9.32984 11.6252 8.91713 12.3974 8.74993 13.2379C8.58273 14.0785 8.66854 14.9498 8.99652 15.7416C9.3245 16.5334 9.87992 17.2102 10.5925 17.6864C11.3051 18.1625 12.1429 18.4167 13 18.4167C14.1493 18.4167 15.2515 17.9601 16.0641 17.1475C16.8768 16.3348 17.3333 15.2326 17.3333 14.0833ZM15.1667 14.0833C15.1667 14.5119 15.0396 14.9308 14.8015 15.2871C14.5634 15.6434 14.2251 15.9211 13.8291 16.0851C13.4332 16.2491 12.9976 16.292 12.5773 16.2084C12.157 16.1248 11.771 15.9184 11.4679 15.6154C11.1649 15.3124 10.9586 14.9263 10.875 14.506C10.7914 14.0857 10.8343 13.6501 10.9983 13.2542C11.1623 12.8583 11.44 12.5199 11.7963 12.2818C12.1526 12.0437 12.5715 11.9167 13 11.9167C13.5746 11.9167 14.1257 12.1449 14.5321 12.5513C14.9384 12.9576 15.1667 13.5087 15.1667 14.0833ZM19.5 22.75C19.5 21.8881 19.1576 21.0614 18.5481 20.4519C17.9386 19.8424 17.112 19.5 16.25 19.5H9.75C8.88805 19.5 8.0614 19.8424 7.4519 20.4519C6.84241 21.0614 6.5 21.8881 6.5 22.75V26H8.66667V22.75C8.66667 22.4627 8.7808 22.1871 8.98397 21.984C9.18713 21.7808 9.46268 21.6667 9.75 21.6667H16.25C16.5373 21.6667 16.8129 21.7808 17.016 21.984C17.2192 22.1871 17.3333 22.4627 17.3333 22.75V26H19.5V22.75ZM23.8333 4.33334C23.8333 3.47628 23.5792 2.63848 23.103 1.92586C22.6269 1.21325 21.9501 0.657837 21.1583 0.329857C20.3665 0.00187755 19.4952 -0.0839369 18.6546 0.0832657C17.814 0.250468 17.0419 0.663178 16.4359 1.26921C15.8298 1.87523 15.4171 2.64736 15.2499 3.48794C15.0827 4.32853 15.1685 5.19982 15.4965 5.99163C15.8245 6.78344 16.3799 7.46022 17.0925 7.93637C17.8051 8.41252 18.6429 8.66667 19.5 8.66667C20.6493 8.66667 21.7515 8.21012 22.5641 7.39747C23.3768 6.58481 23.8333 5.48261 23.8333 4.33334ZM21.6667 4.33334C21.6667 4.76186 21.5396 5.18076 21.3015 5.53707C21.0634 5.89338 20.7251 6.17108 20.3291 6.33507C19.9332 6.49906 19.4976 6.54197 19.0773 6.45837C18.657 6.37477 18.271 6.16841 17.9679 5.8654C17.6649 5.56239 17.4586 5.17632 17.375 4.75603C17.2914 4.33574 17.3343 3.90009 17.4983 3.50419C17.6623 3.10828 17.94 2.76989 18.2963 2.53182C18.6526 2.29374 19.0715 2.16667 19.5 2.16667C20.0746 2.16667 20.6257 2.39494 21.0321 2.80127C21.4384 3.2076 21.6667 3.7587 21.6667 4.33334ZM10.8333 4.33334C10.8333 3.47628 10.5792 2.63848 10.103 1.92586C9.62688 1.21325 8.95011 0.657837 8.15829 0.329857C7.36648 0.00187755 6.49519 -0.0839369 5.65461 0.0832657C4.81402 0.250468 4.0419 0.663178 3.43587 1.26921C2.82984 1.87523 2.41713 2.64736 2.24993 3.48794C2.08273 4.32853 2.16854 5.19982 2.49652 5.99163C2.8245 6.78344 3.37992 7.46022 4.09253 7.93637C4.80514 8.41252 5.64295 8.66667 6.5 8.66667C7.64927 8.66667 8.75147 8.21012 9.56413 7.39747C10.3768 6.58481 10.8333 5.48261 10.8333 4.33334ZM8.66667 4.33334C8.66667 4.76186 8.53959 5.18076 8.30152 5.53707C8.06344 5.89338 7.72505 6.17108 7.32915 6.33507C6.93324 6.49906 6.4976 6.54197 6.0773 6.45837C5.65701 6.37477 5.27095 6.16841 4.96794 5.8654C4.66492 5.56239 4.45857 5.17632 4.37497 4.75603C4.29136 4.33574 4.33427 3.90009 4.49826 3.50419C4.66225 3.10828 4.93996 2.76989 5.29627 2.53182C5.65257 2.29374 6.07147 2.16667 6.5 2.16667C7.07464 2.16667 7.62574 2.39494 8.03207 2.80127C8.43839 3.2076 8.66667 3.7587 8.66667 4.33334Z" fill="#4F5FF6"/>
</g>
<defs>
<clipPath id="clip0_90_5724">
<rect width="26" height="26" fill="white"/>
</clipPath>
</defs>
</svg>
