<svg width="22" height="22" viewBox="0 0 22 22" fill="none" xmlns="http://www.w3.org/2000/svg">
<g clip-path="url(#clip0_90_5474)">
<path d="M11.015 21.9635C4.96005 21.9801 0.0380692 17.0849 0.0215262 11.03C0.00498321 4.97507 4.90003 0.0530829 10.955 0.0365399C12.827 0.0314267 14.6691 0.505716 16.3058 1.4142L17.7247 2.20174L16.3141 3.00572C12.1509 5.36956 10.6923 10.6608 13.0561 14.824C13.9662 16.4268 15.3634 17.6978 17.045 18.4524L18.526 19.1203L17.1857 20.0339C15.3716 21.2872 13.2198 21.9601 11.015 21.9635ZM11.015 1.8637C5.96917 1.8637 1.87872 5.95415 1.87872 11C1.87872 16.0458 5.96917 20.1362 11.015 20.1362C12.3264 20.1365 13.6219 19.8502 14.8111 19.2975C9.97674 16.1055 8.6454 9.59885 11.8374 4.76448C12.4342 3.86067 13.1673 3.05475 14.0108 2.37537C13.0488 2.0348 12.0355 1.86172 11.015 1.8637ZM17.6845 8.89863L18.7507 11.0301L19.8178 8.89863L21.9493 7.83245L19.8178 6.76532L18.7516 4.63381L17.6845 6.76532L15.5539 7.8315L17.6845 8.89863ZM21.0649 15.5681C20.5603 15.5681 20.1512 15.9772 20.1512 16.4818C20.1512 16.9863 20.5603 17.3954 21.0649 17.3954C21.5695 17.3954 21.9785 16.9863 21.9785 16.4818C21.9785 15.9772 21.5695 15.5681 21.0649 15.5681ZM15.5831 11.9136C15.0785 11.9136 14.6695 12.3227 14.6695 12.8273C14.6695 13.3318 15.0785 13.7409 15.5831 13.7409C16.0877 13.7409 16.4968 13.3318 16.4968 12.8273C16.4968 12.3227 16.0877 11.9136 15.5831 11.9136Z" fill="#596780"/>
</g>
<defs>
<clipPath id="clip0_90_5474">
<rect width="22" height="22" fill="white"/>
</clipPath>
</defs>
</svg>
