<svg width="24" height="24" viewBox="0 0 24 24" fill="none" xmlns="http://www.w3.org/2000/svg">
<rect width="24" height="24" rx="5" fill="#2ED9B9"/>
<g clip-path="url(#clip0_90_5399)">
<path d="M9.33333 12C11.5393 12 13.3333 10.206 13.3333 8C13.3333 5.794 11.5393 4 9.33333 4C7.12733 4 5.33333 5.794 5.33333 8C5.33333 10.206 7.12733 12 9.33333 12ZM9.33333 5.33333C10.804 5.33333 12 6.52933 12 8C12 9.47067 10.804 10.6667 9.33333 10.6667C7.86267 10.6667 6.66667 9.47067 6.66667 8C6.66667 6.52933 7.86267 5.33333 9.33333 5.33333ZM14.6667 16.6667V20H13.3333V16.6667C13.3333 15.564 12.436 14.6667 11.3333 14.6667H7.33333C6.23067 14.6667 5.33333 15.564 5.33333 16.6667V20H4V16.6667C4 14.8287 5.49533 13.3333 7.33333 13.3333H11.3333C13.1713 13.3333 14.6667 14.8287 14.6667 16.6667ZM19.9713 10.32L16.6873 13.604C16.4233 13.8673 16.0773 13.9993 15.7313 13.9993C15.3853 13.9993 15.0393 13.8673 14.776 13.6047L12.862 11.6907L13.8047 10.748L15.718 12.662L19.028 9.378L19.9707 10.3207L19.9713 10.32Z" fill="white"/>
</g>
<defs>
<clipPath id="clip0_90_5399">
<rect width="16" height="16" fill="white" transform="translate(4 4)"/>
</clipPath>
</defs>
</svg>
