<svg width="24" height="24" viewBox="0 0 24 24" fill="none" xmlns="http://www.w3.org/2000/svg">
<rect width="24" height="24" rx="5" fill="#FFA254"/>
<g clip-path="url(#clip0_90_5426)">
<path d="M16.6667 5.33333H16V4.66667C16 4.48986 15.9298 4.32029 15.8047 4.19526C15.6797 4.07024 15.5101 4 15.3333 4C15.1565 4 14.987 4.07024 14.8619 4.19526C14.7369 4.32029 14.6667 4.48986 14.6667 4.66667V5.33333H9.33333V4.66667C9.33333 4.48986 9.2631 4.32029 9.13807 4.19526C9.01305 4.07024 8.84348 4 8.66667 4C8.48986 4 8.32029 4.07024 8.19526 4.19526C8.07024 4.32029 8 4.48986 8 4.66667V5.33333H7.33333C6.4496 5.33439 5.60237 5.68592 4.97748 6.31081C4.35259 6.93571 4.00106 7.78294 4 8.66667L4 16.6667C4.00106 17.5504 4.35259 18.3976 4.97748 19.0225C5.60237 19.6474 6.4496 19.9989 7.33333 20H16.6667C17.5504 19.9989 18.3976 19.6474 19.0225 19.0225C19.6474 18.3976 19.9989 17.5504 20 16.6667V8.66667C19.9989 7.78294 19.6474 6.93571 19.0225 6.31081C18.3976 5.68592 17.5504 5.33439 16.6667 5.33333ZM5.33333 8.66667C5.33333 8.13623 5.54405 7.62753 5.91912 7.25245C6.29419 6.87738 6.8029 6.66667 7.33333 6.66667H16.6667C17.1971 6.66667 17.7058 6.87738 18.0809 7.25245C18.456 7.62753 18.6667 8.13623 18.6667 8.66667V9.33333H5.33333V8.66667ZM16.6667 18.6667H7.33333C6.8029 18.6667 6.29419 18.456 5.91912 18.0809C5.54405 17.7058 5.33333 17.1971 5.33333 16.6667V10.6667H18.6667V16.6667C18.6667 17.1971 18.456 17.7058 18.0809 18.0809C17.7058 18.456 17.1971 18.6667 16.6667 18.6667Z" fill="white"/>
<path d="M12 15C12.5523 15 13 14.5523 13 14C13 13.4477 12.5523 13 12 13C11.4477 13 11 13.4477 11 14C11 14.5523 11.4477 15 12 15Z" fill="white"/>
<path d="M8.66663 15C9.21891 15 9.66663 14.5523 9.66663 14C9.66663 13.4477 9.21891 13 8.66663 13C8.11434 13 7.66663 13.4477 7.66663 14C7.66663 14.5523 8.11434 15 8.66663 15Z" fill="white"/>
<path d="M15.3334 15C15.8857 15 16.3334 14.5523 16.3334 14C16.3334 13.4477 15.8857 13 15.3334 13C14.7811 13 14.3334 13.4477 14.3334 14C14.3334 14.5523 14.7811 15 15.3334 15Z" fill="white"/>
</g>
<defs>
<clipPath id="clip0_90_5426">
<rect width="16" height="16" fill="white" transform="translate(4 4)"/>
</clipPath>
</defs>
</svg>
