<svg width="24" height="24" viewBox="0 0 24 24" fill="none" xmlns="http://www.w3.org/2000/svg">
<rect width="24" height="24" rx="5" fill="#8E00FD"/>
<g clip-path="url(#clip0_90_5392)">
<path d="M6.66667 12.6667H8.66667V14H6.66667V12.6667ZM10 14H12V12.6667H10V14ZM6.66667 16.6667H8.66667V15.3333H6.66667V16.6667ZM10 16.6667H12V15.3333H10V16.6667ZM6.66667 8.66667H8.66667V7.33333H6.66667V8.66667ZM10 8.66667H12V7.33333H10V8.66667ZM6.66667 11.3333H8.66667V10H6.66667V11.3333ZM10 11.3333H12V10H10V11.3333ZM20 9.33333V20H4V6C4 5.46957 4.21071 4.96086 4.58579 4.58579C4.96086 4.21071 5.46957 4 6 4H12.6667C13.1971 4 13.7058 4.21071 14.0809 4.58579C14.456 4.96086 14.6667 5.46957 14.6667 6V7.33333H18C18.5304 7.33333 19.0391 7.54405 19.4142 7.91912C19.7893 8.29419 20 8.8029 20 9.33333ZM13.3333 6C13.3333 5.82319 13.2631 5.65362 13.1381 5.5286C13.013 5.40357 12.8435 5.33333 12.6667 5.33333H6C5.82319 5.33333 5.65362 5.40357 5.5286 5.5286C5.40357 5.65362 5.33333 5.82319 5.33333 6V18.6667H13.3333V6ZM18.6667 9.33333C18.6667 9.15652 18.5964 8.98695 18.4714 8.86193C18.3464 8.7369 18.1768 8.66667 18 8.66667H14.6667V18.6667H18.6667V9.33333ZM16 14H17.3333V12.6667H16V14ZM16 16.6667H17.3333V15.3333H16V16.6667ZM16 11.3333H17.3333V10H16V11.3333Z" fill="white"/>
</g>
<defs>
<clipPath id="clip0_90_5392">
<rect width="16" height="16" fill="white" transform="translate(4 4)"/>
</clipPath>
</defs>
</svg>
