<svg width="24" height="24" viewBox="0 0 24 24" fill="none" xmlns="http://www.w3.org/2000/svg">
<rect width="24" height="24" rx="5" fill="#F3735B"/>
<g clip-path="url(#clip0_90_5386)">
<path d="M19.2327 9.11999L18.6533 8.66666H18.6673V5.33332H17.334V7.63399L13.2327 4.42466C12.5073 3.85666 11.4933 3.85666 10.768 4.42466L4.76733 9.11999C4.28 9.50132 4 10.076 4 10.6953V20H10V14C10 13.6327 10.2987 13.3333 10.6667 13.3333H13.3333C13.7013 13.3333 14 13.6327 14 14V20H20V10.6953C20 10.076 19.72 9.50132 19.2327 9.11999ZM18.6667 18.6667H15.3333V14C15.3333 12.8973 14.436 12 13.3333 12H10.6667C9.564 12 8.66667 12.8973 8.66667 14V18.6667H5.33333V10.6953C5.33333 10.4887 5.42667 10.2973 5.58933 10.17L11.5893 5.47466C11.8313 5.28532 12.1687 5.28532 12.4107 5.47466L18.4107 10.17C18.5733 10.2973 18.6667 10.4887 18.6667 10.6953V18.6667Z" fill="white"/>
</g>
<defs>
<clipPath id="clip0_90_5386">
<rect width="16" height="16" fill="white" transform="translate(4 4)"/>
</clipPath>
</defs>
</svg>
