<svg width="24" height="24" viewBox="0 0 24 24" fill="none" xmlns="http://www.w3.org/2000/svg">
<rect width="24" height="24" rx="5" fill="#3786F9"/>
<g clip-path="url(#clip0_90_5378)">
<path d="M8.23267 11.3333H6C5.82319 11.3333 5.65362 11.4036 5.5286 11.5286C5.40357 11.6536 5.33333 11.8232 5.33333 12V14H4V12C4 11.4696 4.21071 10.9609 4.58579 10.5858C4.96086 10.2107 5.46957 10 6 10H9.02467C8.67589 10.3883 8.4068 10.8413 8.23267 11.3333ZM18 10H14.9753C15.3241 10.3883 15.5932 10.8413 15.7673 11.3333H18C18.1768 11.3333 18.3464 11.4036 18.4714 11.5286C18.5964 11.6536 18.6667 11.8232 18.6667 12V14H20V12C20 11.4696 19.7893 10.9609 19.4142 10.5858C19.0391 10.2107 18.5304 10 18 10ZM14.6667 12.6667C14.6667 12.1393 14.5103 11.6237 14.2173 11.1851C13.9242 10.7466 13.5078 10.4048 13.0205 10.203C12.5332 10.0012 11.997 9.94835 11.4798 10.0512C10.9625 10.1541 10.4873 10.4081 10.1144 10.781C9.74144 11.154 9.48747 11.6291 9.38457 12.1464C9.28168 12.6637 9.33449 13.1999 9.53632 13.6872C9.73815 14.1744 10.0799 14.5909 10.5185 14.8839C10.957 15.1769 11.4726 15.3333 12 15.3333C12.7072 15.3333 13.3855 15.0524 13.8856 14.5523C14.3857 14.0522 14.6667 13.3739 14.6667 12.6667ZM13.3333 12.6667C13.3333 12.9304 13.2551 13.1882 13.1086 13.4074C12.9621 13.6267 12.7539 13.7976 12.5102 13.8985C12.2666 13.9994 11.9985 14.0258 11.7399 13.9744C11.4812 13.9229 11.2437 13.7959 11.0572 13.6095C10.8707 13.423 10.7437 13.1854 10.6923 12.9268C10.6408 12.6681 10.6672 12.4001 10.7682 12.1564C10.8691 11.9128 11.04 11.7046 11.2592 11.558C11.4785 11.4115 11.7363 11.3333 12 11.3333C12.3536 11.3333 12.6928 11.4738 12.9428 11.7239C13.1929 11.9739 13.3333 12.313 13.3333 12.6667ZM16 18C16 17.4696 15.7893 16.9609 15.4142 16.5858C15.0391 16.2107 14.5304 16 14 16H10C9.46957 16 8.96086 16.2107 8.58579 16.5858C8.21071 16.9609 8 17.4696 8 18V20H9.33333V18C9.33333 17.8232 9.40357 17.6536 9.5286 17.5286C9.65362 17.4036 9.82319 17.3333 10 17.3333H14C14.1768 17.3333 14.3464 17.4036 14.4714 17.5286C14.5964 17.6536 14.6667 17.8232 14.6667 18V20H16V18ZM18.6667 6.66667C18.6667 6.13925 18.5103 5.62368 18.2173 5.18515C17.9242 4.74662 17.5078 4.40482 17.0205 4.20299C16.5332 4.00116 15.997 3.94835 15.4798 4.05124C14.9625 4.15413 14.4873 4.40811 14.1144 4.78105C13.7414 5.15399 13.4875 5.62914 13.3846 6.14643C13.2817 6.66371 13.3345 7.19989 13.5363 7.68716C13.7382 8.17443 14.0799 8.5909 14.5185 8.88392C14.957 9.17694 15.4726 9.33333 16 9.33333C16.7072 9.33333 17.3855 9.05238 17.8856 8.55229C18.3857 8.05219 18.6667 7.37391 18.6667 6.66667ZM17.3333 6.66667C17.3333 6.93038 17.2551 7.18816 17.1086 7.40743C16.9621 7.62669 16.7539 7.79759 16.5102 7.89851C16.2666 7.99942 15.9985 8.02583 15.7399 7.97438C15.4812 7.92294 15.2437 7.79595 15.0572 7.60948C14.8707 7.42301 14.7437 7.18543 14.6923 6.92679C14.6408 6.66815 14.6672 6.40006 14.7682 6.15642C14.8691 5.91279 15.04 5.70455 15.2592 5.55804C15.4785 5.41153 15.7363 5.33333 16 5.33333C16.3536 5.33333 16.6928 5.47381 16.9428 5.72386C17.1929 5.97391 17.3333 6.31305 17.3333 6.66667ZM10.6667 6.66667C10.6667 6.13925 10.5103 5.62368 10.2173 5.18515C9.92424 4.74662 9.50776 4.40482 9.02049 4.20299C8.53322 4.00116 7.99704 3.94835 7.47976 4.05124C6.96248 4.15413 6.48732 4.40811 6.11438 4.78105C5.74144 5.15399 5.48747 5.62914 5.38457 6.14643C5.28168 6.66371 5.33449 7.19989 5.53632 7.68716C5.73816 8.17443 6.07995 8.5909 6.51848 8.88392C6.95701 9.17694 7.47258 9.33333 8 9.33333C8.70724 9.33333 9.38552 9.05238 9.88562 8.55229C10.3857 8.05219 10.6667 7.37391 10.6667 6.66667ZM9.33333 6.66667C9.33333 6.93038 9.25513 7.18816 9.10863 7.40743C8.96212 7.62669 8.75388 7.79759 8.51024 7.89851C8.26661 7.99942 7.99852 8.02583 7.73988 7.97438C7.48124 7.92294 7.24366 7.79595 7.05719 7.60948C6.87072 7.42301 6.74373 7.18543 6.69229 6.92679C6.64084 6.66815 6.66724 6.40006 6.76816 6.15642C6.86908 5.91279 7.03997 5.70455 7.25924 5.55804C7.47851 5.41153 7.73629 5.33333 8 5.33333C8.35362 5.33333 8.69276 5.47381 8.94281 5.72386C9.19286 5.97391 9.33333 6.31305 9.33333 6.66667Z" fill="white"/>
</g>
<defs>
<clipPath id="clip0_90_5378">
<rect width="16" height="16" fill="white" transform="translate(4 4)"/>
</clipPath>
</defs>
</svg>
