<svg width="24" height="24" viewBox="0 0 24 24" fill="none" xmlns="http://www.w3.org/2000/svg">
<rect width="24" height="24" rx="5" fill="#FF5757"/>
<g clip-path="url(#clip0_90_5420)">
<path d="M6 6.66665H20V5.33331H6C4.89733 5.33331 4 6.23065 4 7.33331V16.6666C4 17.7693 4.89733 18.6666 6 18.6666H20V7.99998H6C5.632 7.99998 5.33333 7.70065 5.33333 7.33331C5.33333 6.96598 5.632 6.66665 6 6.66665ZM6 9.33331H18.6667V17.3333H6C5.632 17.3333 5.33333 17.034 5.33333 16.6666V9.21931C5.54133 9.29331 5.766 9.33331 6 9.33331ZM16 13.3333C16 12.9653 16.2987 12.6666 16.6667 12.6666C17.0347 12.6666 17.3333 12.9653 17.3333 13.3333C17.3333 13.7013 17.0347 14 16.6667 14C16.2987 14 16 13.7013 16 13.3333Z" fill="white"/>
</g>
<defs>
<clipPath id="clip0_90_5420">
<rect width="16" height="16" fill="white" transform="translate(4 4)"/>
</clipPath>
</defs>
</svg>
