<svg width="24" height="24" viewBox="0 0 24 24" fill="none" xmlns="http://www.w3.org/2000/svg">
<rect width="24" height="24" rx="5" fill="#B939A8"/>
<g clip-path="url(#clip0_90_5406)">
<path d="M14 5.66667C14 4.746 14.746 4 15.6667 4C16.5873 4 17.3333 4.746 17.3333 5.66667C17.3333 6.58733 16.5873 7.33333 15.6667 7.33333C14.746 7.33333 14 6.58733 14 5.66667ZM17.3333 12.5153V15.0753L18.6853 15.978L18.6667 20.0033L17.3333 19.9967L17.3487 16.6887L14.198 14.5847C13.6513 14.202 13.3327 13.59 13.3327 12.938V10.4407L11.9993 11.352V14H10.666V10.648L13.698 8.57667C13.8993 8.39333 14.434 8.01133 15.3967 8.01133C16.226 8.01133 17.0633 8.61133 17.3027 9.37733L17.826 11.2453L19.936 12.6207L19.208 13.738L17.3333 12.5153ZM16 14.1847V9.69867C15.9027 9.52133 15.62 9.344 15.3973 9.344C14.998 9.344 14.77 9.44667 14.6667 9.51V12.938C14.6667 13.1553 14.7733 13.3593 14.9513 13.4847L16 14.1847ZM13.774 15.7627L12.068 20H13.5093L14.892 16.5507C14.892 16.5507 13.8093 15.788 13.774 15.7627ZM8.66667 12V10H6.66667V12H8.66667ZM13.172 7.33333C12.912 6.94467 12.74 6.492 12.686 6.004L10.638 4.42067C9.994 3.91667 9.23133 3.862 8.696 4.28067L4.80467 7.32533C4.29333 7.72467 4 8.326 4 8.97533V15.3333H9.33333V14H5.33333V8.97533C5.33333 8.73933 5.44 8.52067 5.62533 8.37533L9.50467 5.33533C9.54467 5.32933 9.676 5.23133 9.82867 5.35L12.6767 7.66C12.6767 7.66 13.1213 7.362 13.1713 7.33267L13.172 7.33333Z" fill="white"/>
</g>
<defs>
<clipPath id="clip0_90_5406">
<rect width="16" height="16" fill="white" transform="translate(4 4)"/>
</clipPath>
</defs>
</svg>
