<svg width="24" height="24" viewBox="0 0 24 24" fill="none" xmlns="http://www.w3.org/2000/svg">
<rect width="24" height="24" rx="5" fill="#73AEFF"/>
<g clip-path="url(#clip0_90_5413)">
<path d="M13.694 7.648C14.4913 6.968 15.3333 5.94933 15.3333 4.66667V4H8.66663V4.66667C8.66663 5.94933 9.50863 6.96733 10.306 7.648C7.16929 8.766 4.66663 12.7493 4.66663 16C4.66663 18.206 6.46063 20 8.66663 20H15.3333C17.5393 20 19.3333 18.206 19.3333 16C19.3333 12.7493 16.8306 8.766 13.694 7.648ZM10.138 5.33333H13.86C13.5126 6.17067 12.6 6.87333 12.0046 7.23467C11.5033 6.928 10.504 6.22667 10.1386 5.33333H10.138ZM15.3333 18.6667H8.66663C7.19596 18.6667 5.99996 17.4707 5.99996 16C5.99996 12.5593 9.05996 8.678 11.9986 8.678C14.9373 8.678 18 12.56 18 16C18 17.4707 16.804 18.6667 15.3333 18.6667ZM10.6666 12.6667C10.6666 12.9187 10.8473 13.132 11.096 13.1733L13.124 13.5113C14.018 13.66 14.6673 14.4267 14.6673 15.3333C14.6673 16.436 13.77 17.3333 12.6673 17.3333V18H11.334V17.3333C10.2313 17.3333 9.33396 16.436 9.33396 15.3333H10.6673C10.6673 15.7007 10.9666 16 11.334 16H12.6673C13.0346 16 13.334 15.7007 13.334 15.3333C13.334 15.0813 13.1533 14.868 12.9046 14.8267L10.8766 14.4887C9.98263 14.34 9.33329 13.5733 9.33329 12.6667C9.33329 11.564 10.2306 10.6667 11.3333 10.6667V10H12.6666V10.6667C13.7693 10.6667 14.6666 11.564 14.6666 12.6667H13.3333C13.3333 12.2993 13.034 12 12.6666 12H11.3333C10.966 12 10.6666 12.2993 10.6666 12.6667Z" fill="white"/>
</g>
<defs>
<clipPath id="clip0_90_5413">
<rect width="16" height="16" fill="white" transform="translate(4 4)"/>
</clipPath>
</defs>
</svg>
