<svg width="24" height="24" viewBox="0 0 24 24" fill="none" xmlns="http://www.w3.org/2000/svg">
<rect width="24" height="24" rx="5" fill="#0BABE0"/>
<g clip-path="url(#clip0_90_5435)">
<path d="M14 20H9.99996V17.658C9.30479 17.412 8.66092 17.04 8.10062 16.5607L6.07129 17.7333L4.07129 14.2667L6.09996 13.0967C5.9667 12.3716 5.9667 11.6284 6.09996 10.9033L4.07129 9.73333L6.07129 6.26667L8.10062 7.43933C8.66092 6.95995 9.30479 6.58796 9.99996 6.342V4H14V6.342C14.6951 6.58796 15.339 6.95995 15.8993 7.43933L17.9286 6.26667L19.9286 9.73333L17.9 10.9033C18.0332 11.6284 18.0332 12.3716 17.9 13.0967L19.9286 14.2667L17.9286 17.7333L15.8993 16.5613C15.3389 17.0405 14.6951 17.4122 14 17.658V20ZM11.3333 18.6667H12.6666V16.6487L13.1673 16.5193C13.9886 16.3066 14.7362 15.8734 15.3293 15.2667L15.6913 14.898L17.44 15.908L18.1066 14.7533L16.36 13.7447L16.4973 13.2473C16.7231 12.4293 16.7231 11.5654 16.4973 10.7473L16.36 10.25L18.1066 9.24133L17.44 8.08667L15.6913 9.09933L15.3293 8.73333C14.7359 8.12756 13.9883 7.69535 13.1673 7.48333L12.6666 7.35133V5.33333H11.3333V7.35133L10.8326 7.48067C10.0113 7.69343 9.26369 8.12659 8.67062 8.73333L8.30862 9.102L6.55996 8.08933L5.89329 9.244L7.63996 10.2527L7.50262 10.75C7.27686 11.568 7.27686 12.432 7.50262 13.25L7.63996 13.7473L5.89329 14.756L6.55996 15.9107L8.30862 14.9007L8.67062 15.2693C9.26401 15.8751 10.0116 16.3073 10.8326 16.5193L11.3333 16.6487V18.6667ZM12 14.6667C11.4725 14.6667 10.957 14.5103 10.5184 14.2173C10.0799 13.9242 9.73811 13.5078 9.53628 13.0205C9.33444 12.5332 9.28163 11.997 9.38453 11.4798C9.48742 10.9625 9.7414 10.4873 10.1143 10.1144C10.4873 9.74144 10.9624 9.48747 11.4797 9.38457C11.997 9.28168 12.5332 9.33449 13.0204 9.53632C13.5077 9.73815 13.9242 10.0799 14.2172 10.5185C14.5102 10.957 14.6666 11.4726 14.6666 12C14.6666 12.7072 14.3857 13.3855 13.8856 13.8856C13.3855 14.3857 12.7072 14.6667 12 14.6667ZM12 10.6667C11.7362 10.6667 11.4785 10.7449 11.2592 10.8914C11.0399 11.0379 10.869 11.2461 10.7681 11.4898C10.6672 11.7334 10.6408 12.0015 10.6922 12.2601C10.7437 12.5188 10.8707 12.7563 11.0571 12.9428C11.2436 13.1293 11.4812 13.2563 11.7398 13.3077C11.9985 13.3592 12.2666 13.3328 12.5102 13.2318C12.7538 13.1309 12.9621 12.96 13.1086 12.7408C13.2551 12.5215 13.3333 12.2637 13.3333 12C13.3333 11.6464 13.1928 11.3072 12.9428 11.0572C12.6927 10.8071 12.3536 10.6667 12 10.6667Z" fill="white"/>
</g>
<defs>
<clipPath id="clip0_90_5435">
<rect width="16" height="16" fill="white" transform="translate(4 4)"/>
</clipPath>
</defs>
</svg>
