<svg width="39" height="34" viewBox="0 0 39 34" fill="none" xmlns="http://www.w3.org/2000/svg">
<path d="M31.7636 7.78871C29.1421 9.90536 26.432 11.8918 23.4414 13.4548C19.4898 15.521 15.3352 16.9017 10.8548 17.0108C7.26606 17.0987 3.80949 16.4768 0.626985 14.6695C0.11269 14.3764 -0.0968977 14.0752 0.0417524 13.4483C1.55562 6.56756 6.70824 1.43874 13.5521 0.284354C20.3234 -0.855383 25.8355 1.44689 30.0563 6.90623C30.2691 7.17976 30.4641 7.46796 30.6754 7.76103C33.3581 5.64438 35.7345 3.25092 38.1705 0.680004C38.0593 1.45177 37.7981 1.98256 37.5756 2.53778C36.3143 5.58699 34.7676 8.50765 32.9566 11.26C32.8218 11.4558 32.7345 11.6809 32.7018 11.9171C32.669 12.1532 32.6917 12.3939 32.768 12.6196C35.1718 21.6528 29.8757 31.0182 20.8973 33.3677C14.2872 35.1001 8.62193 33.2325 3.93202 28.26C3.86887 28.1727 3.81229 28.0807 3.76273 27.9848C5.33625 27.9734 6.8485 28.006 8.35753 27.8546C14.1615 27.2684 19.1593 24.8278 23.5994 21.1236C28.8793 16.708 32.6277 11.0923 35.7554 5.00449C35.8763 4.77003 36.0359 4.5258 35.8086 4.14155L32.3827 7.27094L31.7636 7.78871Z" fill="url(#paint0_linear_90_5447)"/>
<defs>
<linearGradient id="paint0_linear_90_5447" x1="5.01819e-07" y1="0.439049" x2="26.5888" y2="41.4997" gradientUnits="userSpaceOnUse">
<stop stop-color="#96D0FF"/>
<stop offset="0.489583" stop-color="#4F96D7"/>
<stop offset="1" stop-color="#4FA6F6"/>
</linearGradient>
</defs>
</svg>
